<svg version="1.2" xmlns="http://www.w3.org/2000/svg" viewBox="0 0 200 80" width="200" height="80">
	<title>hotnheavy_logo-svg</title>
	<style>
		.s0 { fill: #282828 } 
		.s1 { fill: #737373 } 
		.s2 { fill: #981111 } 
		.s3 { fill: #000000 } 
		.s4 { fill: #e97c2c } 
	</style>
	<g id="Layer 1">
		<path id="Shape 16" fill-rule="evenodd" class="s0" d="m120 52h84v38h-84z"/>
		<path id="Shape 17" fill-rule="evenodd" class="s0" d="m126 49h13v6h-13z"/>
		<path id="Shape 18" fill-rule="evenodd" class="s0" d="m183 49h21.9v8.2h-21.9z"/>
		<path id="Shape 11" fill-rule="evenodd" class="s0" d="m0 49h128v36h-128z"/>
		<path id="Shape 12" fill-rule="evenodd" class="s1" d="m-2-2h204v48h-204z"/>
		<path id="Shape 13" fill-rule="evenodd" class="s1" d="m128 43h74v6h-74z"/>
		<path id="Shape 14" fill-rule="evenodd" class="s1" d="m135 47h48v4h-48z"/>
		<path id="Shape 15" fill-rule="evenodd" class="s1" d="m153 49h14v4h-14z"/>
		<g id="Layer 1">
			<path id="Shape 1" fill-rule="evenodd" class="s2" d="m-6 45.5h133v4h-133z"/>
			<path id="Shape 1 copy" fill-rule="evenodd" class="s2" d="m198 45.5h133v4h-133z"/>
			<g id="Layer 1">
				<path id="Shape 2" fill-rule="evenodd" class="s2" d="m175.1 49.9l21.2-3.9 0.7 3.6-21.2 3.8z"/>
				<path id="Shape 3" fill-rule="evenodd" class="s2" d="m145.3 50.3l17 1.1-0.2 3.7-17.1-1.1z"/>
				<path id="Shape 3 copy" fill-rule="evenodd" class="s2" d="m161.6 51.6l15.9-1.9 0.5 3.5-16 1.9z"/>
				<path id="Shape 4" fill-rule="evenodd" class="s2" d="m127.1 45.7l18.9 4.6-0.9 3.7-18.9-4.5z"/>
				<path id="Shape 5" fill-rule="evenodd" class="s2" d="m161.9 51.4l1 0.1-0.1 1-1-0.1z"/>
				<path id="H" fill-rule="evenodd" class="s3" d="m107.5 44.8q-0.3 0-0.3 0-0.1 0-0.2-0.1 0-0.1 0.1-0.2 0-0.2 0.1-0.5 0-0.1 0-0.1 0.1 0 0.2-0.1 0.1 0 0.1 0 0 0.1 0.1 0.2 0 0 0.1 0.1 0.1 0 0.2 0l0.2 0.1 0.3-0.1q0.1 0 0.2 0 0 0 0.1 0 0.2-0.1 0.3-0.2 0-0.1 0-0.3 0.1-0.5 0.1-1 0.1-0.5 0.1-0.9v-0.2q0-0.3 0.1-0.5 0-0.3 0.1-0.6 0-0.1 0-0.1v-0.1l-0.1-0.1 0.1-0.6 0.2-1.6v-0.1q0-0.1 0-0.3 0.1-0.3 0.1-0.4l-0.1-0.2q0-0.1 0.1-0.1 0 0 0-0.1 0.1-0.1 0-0.1l0.1-1q-0.1 0-0.1-0.1 0-0.2 0-0.2 0-0.1 0-0.3 0.1-0.3 0.1-0.3 0-0.1 0-0.4 0-0.3 0-0.3v-0.1q0-0.1 0-0.1v-0.1l0.1-0.2-0.1-0.1q0 0 0-0.2 0.1-0.2 0.1-0.5 0-0.2 0-0.4 0-0.2 0-0.3 0-0.1 0-0.2 0.1-0.1 0.1-0.2 0-0.1 0-0.1 0-0.1 0-0.3 0.1-0.2 0.1-0.3v-0.1-0.4q0-0.6 0.1-1.4 0.1-0.7 0.1-1.4-0.3-0.2-0.6-0.1-0.3 0-0.6-0.1 0 0-0.3-0.1-0.2-0.1-0.3-0.1 0 0-0.2 0-0.1 0-0.2 0-0.1-0.2-0.1-0.3 0.1-0.1 0.1-0.3 0-0.3 0.2-0.3 0.2 0 0.4-0.2l0.1-0.1h0.1l0.2 0.1h0.1q0 0 0.2-0.1 0.3 0 0.3 0h0.2q0.1 0 0.2 0.1 0.2 0.1 0.4 0.1 0.2 0.1 0.4 0.1 0.2 0 0.3 0 0.8 0 1.6 0.1 0.8 0 1.6 0 0 0 0.2 0 0.2 0 0.4 0 0.3 0 0.4 0 0.3 0 0.3 0 0.1 0 0.2 0 0-0.1 0-0.1 0.1 0 0.1 0 0.1 0 0.1 0.1 0 0.1 0.1 0.1h0.2q0 0 0.2 0 0.2 0 0.3 0 0.2 0 0.4 0 0.1 0 0.2 0h0.1v0.1q0 0 0 0.3 0 0.3 0 0.3v0.1 0.1q-0.1 0.1-0.2 0.1-0.2 0-0.2 0h-0.9l-0.1 0.1v0.1q0 0 0.1 0.1 0.1 0.1 0.2 0.1l-0.2 1.3q0.1 0.1 0 0.1 0 0 0 0.2-0.1 1-0.2 2-0.1 0.9-0.2 1.9-0.1 0.3-0.1 0.6 0 0.2 0 0.5 0 0.2 0 0.5 0.1 0.2 0.3 0.4 0.1 0 0.4 0.1 0.3 0 0.5 0 0.1 0 0.4 0.1 0.3 0 0.6 0 0.4 0 0.6 0.1 0.3 0 0.5 0 0.1 0 0.2 0.1 0.2 0 0.3 0h0.1q0.2 0 0.6-0.2 0.3-0.2 0.4-0.5 0-0.5 0.1-1 0.1-0.5 0.3-1v-0.1-0.1q0.1-0.3 0.1-0.5 0-0.3 0-0.6 0.1-0.3 0.2-0.5 0-0.3 0.1-0.6 0-0.2 0-0.3 0-0.1-0.2-0.2 0-0.1 0-0.4 0-0.2 0-0.3 0 0 0.1-0.2 0.1-0.1 0.1-0.2v-0.2q0 0 0-0.1 0-0.1 0.1-0.1l-0.2-0.3q0-0.1 0-0.3 0-0.3 0-0.3v-0.2h-0.3q-0.3 0-0.7 0.1-0.3 0.1-0.6 0-0.1 0-0.2-0.1 0-0.2 0-0.3 0-0.2 0-0.4 0-0.2 0-0.3v-0.1q0.1 0 0.2 0 0.2-0.1 0.3-0.1 0.5 0 1.2 0.1 0.8 0 1.5 0 0.8 0 1.6 0 0.7 0 1.3-0.1l2 0.2q0.2 0 0.4 0.1 0.2 0.1 0.4 0.1 0.1 0.1 0.2 0.3 0.1 0.1 0 0.4v0.1q0 0-0.1 0.1-0.1 0.1-0.2 0.1 0 0-0.3 0-0.2 0-0.5 0-0.2-0.1-0.4-0.1-0.2 0-0.3 0-0.1 0-0.2 0-0.1 0.1-0.2 0.1h-0.1v0.1h0.5q0 0.1 0 0.2 0.1 0 0.1 0.1 0 0 0 0.1 0 0.9-0.1 1.8-0.1 0.9-0.1 1.8l0.1 0.2q0 0.1 0 0.3 0 0.2 0 0.2 0 0.3 0.1 0.6 0.1 0.2 0.1 0.6-0.1 0-0.1 0.1 0 0.1 0 0.2l-0.1 0.1q0 0.1 0 0.2 0 0 0 0.1 0 0.1 0 0.1l-0.2 0.3q0 0.1-0.1 0.4-0.1 0.4-0.1 0.5-0.1 0.4 0 0.8 0 0.4 0 0.8 0 0.1-0.1 0.4 0 0.3-0.1 0.6-0.1 0.3-0.1 0.6 0 0.3 0 0.4-0.1 0.3-0.1 0.6 0 0.3 0 0.7 0 0 0 0.2 0 0.3 0 0.6 0 0.2-0.1 0.5 0 0.3 0 0.4v0.1q0 0.2 0 0.5 0 0.3 0 0.5 0 0.3 0 0.6-0.1 0.2-0.1 0.3 0 0 0 0.1 0 0.1 0.1 0.2v0.3l0.1 0.1q0 0 0.2 0 0.2-0.1 0.2-0.1 0.4 0 0.5 0.1 0.2 0.1 0.2 0.1 0.2 0.1 0.3 0.2 0.1 0 0.4 0 0.1 0 0.1 0.2 0.1 0.2 0.1 0.2 0 0.1-0.1 0.3-0.1 0.1-0.2 0.1 0 0-0.1 0-0.2 0.1-0.2 0.1-1.4 0.1-2.8-0.1-1.4-0.1-2.7-0.2-0.7 0-1.5 0-0.7-0.1-1.5-0.1l-0.2 0.1q-0.1 0-0.3 0-0.3 0-0.4 0-0.1 0-0.2 0-0.1-0.1-0.1-0.1 0 0 0-0.3 0-0.2 0-0.3 0 0 0-0.2 0-0.1 0-0.2v-0.1h0.7v-0.2q0.4 0 0.7-0.1 0.2-0.2 0.3-0.6 0-0.2 0.1-0.5 0-0.2 0-0.4 0-0.1-0.1-0.2-0.1-0.2-0.1-0.3 0 0 0.1-0.1 0-0.1 0.1-0.3 0.1-0.1 0.1-0.3 0.1-0.1 0.1-0.1 0.1-0.7-0.1-1.3-0.2-0.6-0.1-1.3 0.1-0.3 0.3-0.6 0.3-0.4 0.4-0.7 0-0.1-0.1-0.2 0-0.1-0.2-0.2-0.1 0-0.2-0.1-0.2 0-0.3-0.1l-0.2-0.1h-0.2q0 0-0.3-0.1-0.2 0-0.4 0.1-0.3 0-0.4 0-0.2 0-0.3 0.2 0 0-0.2-0.1-0.2 0-0.3 0 0 0-0.2-0.2-0.1-0.1-0.1-0.1h-0.1q-0.3-0.1-0.5 0-0.1 0-0.3 0.1-0.1 0.1-0.2 0.3-0.1 0.1-0.3 0.3 0 0.1-0.1 0.2-0.1 0.1-0.1 0.2l-0.4 2.7q0 0.5-0.1 1 0 0.5 0 0.8 0 0.1 0.1 0.3 0 0.1 0 0.3 0 0.1 0 0.3l0.1 0.1q0 0-0.1 0.1 0 0.1 0.1 0.2 0 0.1 0 0.2 0 0.3 0.1 0.3 0.1 0.1 0.4 0.2 0.3 0.1 0.3 0.5 0 0.3-0.1 0.6 0 0.2-0.1 0.2 0 0-0.1 0-0.1 0-0.5 0-0.4 0-0.5 0l-2-0.1q0 0-0.1 0-0.2 0-0.3 0-0.1 0-0.3 0-0.1 0-0.1 0-0.1 0-0.3 0-0.2 0-0.4 0-0.3-0.1-0.5-0.1-0.2 0-0.3 0h-0.1q-0.2 0-0.2 0-0.1 0-0.1 0 0 0-0.1 0.1-0.1 0-0.2 0-0.1 0-0.4-0.1-0.2 0-0.5 0-0.3-0.1-0.6-0.1-0.2 0-0.4 0 0 0 0-0.1 0-0.1-0.1-0.2 0-0.1 0-0.2 0-0.1 0-0.2zm5-1.4q-0.1 0-0.1 0.1 0 0.1 0.1 0.1 0 0 0-0.1 0-0.1 0-0.1zm-0.6-5.3q0.1-0.1 0 0-0.1 0.1 0 0.1 0 0 0-0.1zm0-0.3q-0.1 0-0.1 0.1 0.1 0 0.1 0 0-0.1 0-0.1zm-0.2-0.4q-0.1 0-0.1 0.1 0 0.1 0.1 0.1 0 0 0-0.1 0-0.1 0-0.1zm0-1.1q0 0 0 0.1 0 0 0.1 0 0-0.1-0.1-0.1zm-0.3-0.4q0 0.1 0 0.1 0.1 0 0.1-0.1 0 0-0.1 0zm0-1.2q0 0.1 0 0.1 0.1 0 0.1-0.1 0 0-0.1 0zm-0.2-0.5q-0.1 0-0.1 0 0 0.1 0 0.1 0.1 0 0.1-0.1zm15.9-6.3q0.1 0 0.1 0 0 0.1-0.1 0.1 0 0 0-0.1zm-1.8 17.7q-0.1 0-0.1 0 0 0.1 0.1 0.1 0 0 0-0.1zm0.4-0.2q0 0.1 0 0.1 0.1 0 0.1-0.1 0 0-0.1 0zm-0.4-0.1q0 0.1 0 0.1 0 0 0-0.1 0.1 0 0 0zm-0.5-0.2q0 0 0 0.1 0.1 0 0.1 0 0-0.1-0.1-0.1zm0.5-0.1q0 0 0 0.1 0.1 0 0.1 0 0-0.1-0.1-0.1zm-2.1-1.2q-0.1 0-0.1 0.1 0 0.1 0.1 0.1 0 0 0-0.1 0-0.1 0-0.1zm0.8 0q0 0.1 0 0.1 0.1 0 0.1-0.1 0 0-0.1 0zm-1.1-0.8q0 0 0 0.2 0 0.2 0 0.1 0.2-0.1 0-0.3zm-0.4-0.5q0 0 0 0.1 0 0.1 0 0.1 0.1 0 0.1-0.1 0-0.1-0.1-0.1zm-0.2-0.7q-0.1 0-0.1 0.1 0 0 0.1 0 0-0.1 0-0.1zm1.1 0.1q0 0.1 0 0.1 0.1 0 0.1-0.1 0 0-0.1 0zm-1.7-0.4q0 0.1 0 0.1 0.1 0 0.1 0 0-0.1-0.1-0.1zm1.5-0.1q-0.1 0-0.1 0.1 0 0 0.1 0 0-0.1 0-0.1zm-1.5-0.2q0 0.1 0 0.1 0.1 0 0.1 0 0-0.1-0.1-0.1zm2.1-0.3q-0.1 0-0.1 0 0 0.1 0.1 0.1 0 0 0-0.1zm-1.3-0.4q0 0-0.1 0.1 0 0 0.1 0 0.1 0.1 0.1 0 0-0.1-0.1-0.1zm1.7 0q0-0.1 0 0 0 0.1 0 0.1 0.1 0 0.1-0.1 0 0-0.1 0zm0.3-0.2q0 0 0 0.1 0 0.1 0 0.1 0.1 0 0.1-0.1 0-0.1-0.1-0.1zm-2.6-1q-0.1 0-0.1 0.1 0 0.1 0 0.1 0.1 0 0.1-0.1 0-0.1 0-0.1zm0.5 0.1q0 0.1 0 0.1 0.1 0 0.1-0.1 0 0-0.1 0zm-0.8-0.7q0 0 0 0.1 0 0.1 0 0.1 0 0 0.1-0.1 0-0.1-0.1-0.1zm0.9-0.2q-0.1 0-0.1 0.1 0 0 0.1 0 0-0.1 0-0.1zm2.7 0q0 0 0 0.1 0.1 0 0.1 0 0-0.1-0.1-0.1zm-2.3-0.3q0 0 0 0.1 0 0.1 0 0.1 0.1 0 0.1-0.1 0-0.1-0.1-0.1zm2 0.2q-0.1 0-0.1 0 0 0.1 0.1 0.1 0 0 0-0.1zm-2.1-0.3q0 0 0 0.1-0.1 0 0 0 0-0.1 0-0.1zm-0.1-0.2q-0.1 0-0.1 0.1 0 0.1 0.1 0.1 0 0 0-0.1 0-0.1 0-0.1zm2.4 0.2q-0.1 0-0.1 0 0 0.1 0.1 0.1 0.1-0.1 0-0.1zm-3.3-0.4q0 0 0 0.1 0 0.1 0 0.1 0 0 0-0.1 0.1-0.1 0-0.1zm1-0.3q0 0.1 0 0.1 0.1 0 0.1-0.1 0 0-0.1 0zm1.2 0q-0.1 0-0.1 0.1 0 0.1 0.1 0.1 0 0 0-0.1 0-0.1 0-0.1zm-2.2-0.3l-0.1 0.1h0.1zm3.2 0.1v0.2l0.1-0.1zm-1.7 0q0 0 0 0.1 0.1 0 0.1 0 0-0.1-0.1-0.1zm0.6 0q-0.1 0-0.1 0.1 0 0.1 0.1 0.1 0.1 0 0.1-0.1 0-0.1-0.1-0.1zm-1.7-0.2q-0.1 0.1 0 0.1 0-0.1 0-0.1zm-0.2-0.2q0 0 0 0.1 0 0.1 0 0.1 0.1 0 0.1-0.1 0-0.1-0.1-0.1zm1.2-0.1q-0.1 0-0.2 0.1-0.2 0-0.2 0.1l0.1 0.1q0.1 0 0.2-0.1 0.1 0 0.1-0.2zm1.6 0.3q-0.1 0-0.1 0.1 0 0 0.1 0 0-0.1 0-0.1zm0.3-0.2q-0.1 0-0.1 0.1 0 0.1 0.1 0.1 0 0 0-0.1 0 0 0-0.1zm-2.7-0.4q-0.1 0-0.1 0.1 0 0 0.1 0.1 0 0 0-0.1 0-0.1 0-0.1zm2.3 0.1q-0.1-0.1-0.2 0 0 0.1 0 0.1 0 0.1 0.1 0 0.1-0.1 0.1-0.1zm-2.7-0.5q0 0.1 0.1 0.2 0.1 0 0 0.1 0.2-0.1 0.2-0.1 0-0.1 0.1-0.3l0.1-0.1q0.1-0.1 0-0.2 0-0.1-0.1-0.1h-0.1q-0.1 0-0.2 0-0.1 0-0.1 0.1 0 0.1 0.1 0.1 0.1 0.1 0.2 0.1zm0.7 0.2q-0.1 0-0.1 0.1 0 0.1 0.1 0.1 0 0 0-0.1 0-0.1 0-0.1zm0.7 0.1q-0.1 0-0.1 0 0 0.1 0.1 0.1 0.1-0.1 0-0.1zm1.6-0.1q-0.1 0-0.1 0.1 0 0.1 0.1 0.1 0 0 0-0.1 0-0.1 0-0.1zm0.3 0.1q-0.1-0.1-0.1 0 0 0.1 0.1 0.1 0 0 0-0.1zm-3.5-0.4q0 0 0 0.1 0.1 0.1 0.1 0 0-0.1-0.1-0.1zm0.9-0.5q0 0.1 0.1 0.2 0.1 0 0.2 0.1 0.1 0.1 0.2 0.2 0 0.1 0.1 0.1l0.1-0.1-0.1-0.1 0.3-0.2q0 0-0.1-0.1-0.2-0.2-0.2-0.2l-0.1 0.1v-0.3q-0.1 0-0.3 0.1-0.2 0-0.2 0.2zm1.9 0.2q-0.1 0-0.1 0.1 0 0.1 0.1 0.1 0 0 0-0.1 0-0.1 0-0.1zm-2.1-0.5q0 0-0.2 0-0.2 0-0.1 0 0.1 0.2 0.3 0zm1.2 0.1q-0.1 0-0.1 0 0 0.1 0.1 0.1 0 0 0-0.1zm1.1-0.2q-0.1 0-0.1 0.1 0 0 0.1 0 0-0.1 0-0.1zm-2.9-0.3q0 0 0 0.1 0 0.1 0 0.1 0 0 0-0.1 0.1-0.1 0-0.1zm0.7 0.2q0-0.1-0.1-0.1 0 0 0 0.1 0.1 0 0.1 0zm0.7-0.1v0.1h0.2zm-1.4-0.3q-0.1 0-0.1 0 0 0.1 0.1 0.1 0 0 0-0.1zm0.4 0.1q0 0.1 0 0.1 0 0 0.1-0.1 0 0-0.1 0zm0.3 0q-0.1 0-0.1 0 0 0.1 0.1 0.1 0 0 0-0.1zm0.4-0.1q0 0.1 0 0.1 0.1 0 0.1-0.1 0 0-0.1 0zm0.9-0.2q0 0.1 0 0.2 0.1 0.1 0.1 0.1 0.2 0 0.2-0.1 0-0.1-0.1-0.2 0-0.1-0.1-0.1-0.1-0.1-0.1 0.1zm0.6 0.2q-0.1 0-0.1 0 0 0.1 0.1 0.1 0 0 0-0.1zm-1-0.1q-0.1-0.1-0.1 0 0 0.1 0.1 0.1 0 0 0-0.1zm-0.4-0.4q-0.1 0-0.1 0.1 0 0.1 0 0.1 0.1 0 0.1-0.1 0-0.1 0-0.1zm0.5 0.1q0 0.1 0 0.1 0.1 0 0.1-0.1 0 0-0.1 0zm-2-0.3q0 0 0 0.1 0.1 0 0.1 0 0-0.1-0.1-0.1zm2 0q0 0 0 0.1 0.1 0 0.1 0 0-0.1-0.1-0.1zm0.6 0.1q0-0.1-0.1-0.1 0 0 0 0.1 0.1 0 0.1 0zm-2-0.4q0 0 0 0.1 0 0.1 0 0.1 0.1 0 0.1-0.1 0-0.1-0.1-0.1zm-0.1-0.1q-0.1 0-0.1 0.1 0 0 0.1 0 0-0.1 0-0.1zm0.1-0.3q0 0 0 0.1 0 0.1 0 0.1 0.1 0 0.1-0.1 0-0.1-0.1-0.1zm0.5 0q-0.1-0.1-0.1 0-0.1 0.1-0.1 0.1 0.1 0.1 0.1 0 0.1-0.1 0.1-0.1zm1.6 0.1l-0.2 0.1h0.2zm-0.2-0.4v0.2l0.2-0.2zm-1.4-0.6q-0.1 0-0.1 0.1 0 0 0.1 0 0-0.1 0-0.1zm1.6 0.1q-0.1 0-0.1 0 0 0.1 0.1 0.1 0-0.1 0-0.1zm0.1-0.4q0 0.1 0 0.1 0.1 0 0.1-0.1 0 0-0.1 0zm-0.1-0.2q0 0 0 0.1-0.1 0 0 0 0-0.1 0-0.1zm-1.1-0.2q-0.1 0-0.1 0.1 0 0 0.1 0 0-0.1 0-0.1zm-0.9-0.6q0 0.1 0 0.1 0.1 0 0.1 0 0-0.1-0.1-0.1zm1.1-0.5q-0.1 0-0.1 0.1 0 0.1 0.1 0.1 0 0 0-0.1 0-0.1 0-0.1zm-0.5-1.5q-0.1 0-0.1 0.1 0 0 0.1 0 0-0.1 0-0.1zm-1-0.5q-0.1 0-0.1 0.1 0 0 0.1 0 0.1 0.1 0.1 0 0-0.1-0.1-0.1z"/>
				<path id="e" fill-rule="evenodd" class="s3" d="m128.5 41.8q0.1-1.1 0.4-2.2 0.4-1.4 1.3-2.2 1-0.8 2.3-1.3 0.4-0.2 0.8-0.2 0.3-0.1 0.7-0.2 0.3 0 0.7 0 0.3 0 0.8 0l0.1-0.1h0.1q0 0 0.2 0.1 0.1 0.1 0.2 0.1 0.9 0.3 1.8 1 0.8 0.6 1.4 1.4 0.2 0.4 0.3 0.9 0.2 0.5 0.4 0.9 0.1 0.5 0.2 0.8 0 0.2 0 0.7 0 0.1-0.1 0.2 0 0.2-0.1 0.4-0.1 0.1-0.2 0.2-0.1 0.1-0.3 0.1l-0.5-0.1q-0.1 0-0.4 0-0.2 0-0.5-0.1-0.3 0-0.5 0-0.2 0-0.4 0 0 0-0.3 0-0.1-0.1-0.3-0.1-0.2 0-0.4 0-0.1 0-0.1 0-0.1 0-0.3 0-0.2 0.1-0.2 0.1l-0.3-0.2-0.2-0.1q-0.3 0-0.5 0-0.1 0-0.2 0.1-0.1 0-0.3 0-0.1 0-0.3-0.1l-0.2 0.1q-0.2 0.1-0.4 0.1-0.1-0.1 0 0.2-0.1 0.2-0.1 0.2 0 0.1 0.1 0.2 0 0.2 0 0.3v0.1q0 0.1-0.1 0.3 0 0.1 0 0.2 0 0 0 0.1 0 0.1 0 0.1v0.1 0.1l-0.1 0.1q0 0 0.1 0.2 0.1 0.1 0.1 0.2 0 0 0.1 0.1 0 0.2 0.1 0.3v0.3l0.2 0.1q0.2 0.4 0.5 0.7 0.4 0.2 0.9 0.3 0.5 0.1 1 0.1 0.5-0.1 0.9-0.3 0.2 0 0.4-0.1 0.2-0.1 0.4-0.2 0.2-0.1 0.4-0.2 0.1-0.1 0.1-0.1v-0.3q0.1-0.1 0.2-0.2 0 0 0.1-0.1 0.1-0.1 0.1-0.1 0.1-0.1 0.1-0.1 0.1-0.1 0.2-0.1 0.1 0 0.2 0.1 0.1 0 0.2 0.1 0.1 0 0.2 0.1 0.1 0 0.1 0 0.1 0.1 0.1 0.1 0-0.1 0 0.1 0 0.2-0.3 0.4-0.2 0.2-0.4 0.4 0 0-0.1 0.2-0.2 0.1-0.2 0.2 0 0-0.2 0.2-0.3 0.2-0.3 0.2-0.1 0.1-0.2 0.1 0 0.1 0 0.2-0.1 0-0.4 0.1-0.2 0.1-0.5 0.2-0.3 0.1-0.5 0.3-0.3 0-0.3 0.1-0.4 0.1-0.7 0.2-0.2 0-0.6 0.1 0 0-0.2 0-0.2 0.1-0.2 0.1l-0.9-0.1q-0.1 0-0.2 0-0.1 0-0.2 0h-0.1q-0.6-0.3-1.2-0.6-0.6-0.2-1.1-0.6-0.5-0.5-1-1-0.5-0.6-0.8-1.3-0.4-0.6-0.6-1.3-0.1-0.7 0-1.4zm5.3-1.1q0 0.1 0.1 0.2 0 0 0.1 0.1 0.2 0 0.4-0.1 0.2 0 0.4 0 0.1 0 0.3 0 0.3 0 0.3 0 0.1 0 0.2 0 0.2 0 0.3 0 0.1-0.1 0.3-0.1 0.1-0.1 0.1-0.1v-0.2q0-0.1 0.1-0.2 0-0.2 0-0.3 0-0.2 0.1-0.6 0-0.5 0-0.9 0-0.5 0-0.8 0-0.4-0.1-0.6l-0.1-0.1q-0.1 0-0.1-0.2 0-0.2-0.1-0.2 0 0-0.1 0-0.1 0-0.1 0-0.1 0-0.2-0.1-0.1-0.2-0.1-0.2h-0.1q-0.1 0-0.1 0.1 0 0.1-0.1 0.2 0-0.1-0.1 0-0.1 0.1-0.1 0.1-0.3 0.2-0.5 0.6-0.2 0.4-0.4 0.9-0.1 0.4-0.2 0.9-0.1 0.5-0.1 0.9zm-1.8-0.6q0 0 0 0.1-0.1 0 0 0 0.1-0.1 0-0.1zm0.7-0.1q-0.1 0-0.1 0-0.1 0-0.1 0.1zm-2.7-0.6q-0.1 0-0.1 0.1 0.1 0 0.1 0 0-0.1 0-0.1zm2.2-0.4q0.1 0.2 0.2 0.4 0 0.2 0 0.4 0.1 0 0.1-0.1 0-0.1 0.1-0.3 0-0.1 0-0.2 0-0.1 0-0.1zm0.9 0.7q-0.1 0-0.1 0.1 0 0 0.1 0 0-0.1 0-0.1zm-2.8-0.5q-0.1 0-0.1 0.1 0 0.1 0 0.1 0.1 0 0.1-0.1 0-0.1 0-0.1zm2.6 0.2q-0.1 0-0.1 0.1 0 0 0.1 0 0 0 0-0.1zm-2.4-0.3q0 0.1 0 0.1 0 0 0-0.1 0.1 0 0 0zm-0.7-0.2q0 0.1 0 0.1 0.1 0 0.1-0.1 0 0-0.1 0zm0.8 0q0.1 0.1 0.2 0.1 0.2 0 0.2 0 0.2 0.1 0.3 0.1 0.2 0 0.4-0.1v-0.6q0.1-0.1 0.1-0.1-0.1 0-0.3 0.2-0.1 0.3-0.3 0.3l0.1-0.2h-0.5l0.1 0.1zm0.2-0.1q0 0 0 0.1 0 0.1 0 0.1-0.1-0.1-0.1-0.1 0-0.1 0.1-0.1zm2.3 0q-0.2 0-0.2 0.2l-0.1 0.1q0.2 0 0.2-0.1 0.1-0.1 0.1-0.2zm-2.8-0.1q-0.1 0-0.1 0 0 0 0 0.1 0.1 0 0.1-0.1zm1.4 0q0 0 0 0.1 0.1 0 0.1 0 0-0.1-0.1-0.1zm1.5 0.2q0 0 0 0.1 0 0 0.1 0 0-0.1-0.1-0.1zm-1-0.3q-0.2 0-0.2 0.1zm0.4 0q0 0.1 0.1 0.2 0.2-0.1 0.3-0.4v-0.1q-0.1 0.1-0.2 0.1-0.2 0.1-0.2 0.2zm-1.7-0.3q-0.1 0.1 0 0.1 0 0 0-0.1zm1.2 0q-0.1 0-0.1 0.1 0 0 0.1 0.1 0 0 0-0.1 0-0.1 0-0.1zm1.1 0.2q-0.1 0-0.1 0.1 0 0 0.1 0.1 0 0 0-0.1 0-0.1 0-0.1zm-2.5-0.4l0.1 0.1v-0.1zm1.6 0.2q0 0-0.1 0.1 0 0 0.1 0 0-0.1 0-0.1zm-1.2-0.2q-0.1 0-0.1 0 0 0.1 0 0.1 0.1 0 0.1-0.1zm0.6-0.3q-0.1 0-0.2 0.1-0.1 0.1-0.1 0.3h0.2q0-0.1 0-0.2 0.1-0.1 0.2-0.1zm0.6 0.3q0.1 0 0.2 0.1 0.1 0 0.2 0 0 0 0.1-0.1 0.1-0.1 0.1-0.2-0.1 0.1-0.3 0.1-0.1 0.1-0.3 0.1zm0.8-0.3q0.1 0.1 0 0.3 0 0.2 0.2 0.2 0.2 0 0.2-0.2 0-0.1-0.1-0.1l0.1-0.1zm-1.1 0l-0.1 0.2 0.2-0.1zm0.5-0.1q-0.1 0-0.2 0.1zm1.4 0.1q-0.1 0-0.1 0.1 0.1 0 0.1 0 0-0.1 0-0.1zm-2.5-0.4q-0.1 0-0.1 0.1 0 0 0.1 0 0-0.1 0-0.1zm0.2 0q-0.1 0-0.1 0.1 0 0 0.1 0.1 0 0 0-0.1 0-0.1 0-0.1zm0.8 0.1q0 0 0 0.1-0.1 0 0 0 0 0.1 0 0 0.1-0.1 0-0.1zm-1.1-0.2q-0.1 0-0.1 0 0 0.1 0 0.1 0.1 0 0.1 0 0-0.1 0-0.1zm1 0.1q0 0 0 0.1-0.1 0 0 0 0.1-0.1 0-0.1zm0.7 0v0.2l0.1-0.1zm-1.3-0.3q0 0 0 0.1 0 0 0 0.1 0.1 0 0.1-0.1 0-0.1-0.1-0.1zm2.2 0.3q0 0 0 0.1 0.1-0.1 0-0.1zm-2.7-0.5q-0.1 0-0.1 0 0 0.1 0.1 0.1 0-0.1 0-0.1zm1.5 0.2q-0.1 0-0.1 0.1 0 0 0.1 0 0-0.1 0-0.1zm0.8 0.1q-0.1-0.1-0.1 0-0.1 0 0 0.1 0 0 0.1 0 0-0.1 0-0.1zm-0.4-0.4q-0.1 0.1 0 0.2 0 0 0 0.1l0.2-0.3zm4.1 4.6q-0.1-0.1-0.1 0 0 0 0.1 0 0 0.1 0 0zm0.5-0.2l-0.2 0.2q0.1 0 0.1 0 0.1-0.1 0.1-0.1zm2.1 0.1q0 0 0 0.1 0 0.1 0 0.1 0 0 0.1-0.1 0-0.1-0.1-0.1zm-2.4-0.4q0 0 0 0.1 0 0 0.1 0 0-0.1-0.1-0.1zm0.6-0.1q0 0-0.1 0.1 0 0.1 0.1 0.1 0 0 0-0.1 0-0.1 0-0.1zm-1.1-0.5q0 0-0.1 0.2 0 0.2 0.1 0.1 0.1-0.1 0-0.3zm2 0.5q-0.1 0-0.1 0 0 0.1 0 0.1 0.1 0 0.1 0 0-0.1 0-0.1zm-1.7-0.4q-0.1 0-0.1 0.1 0 0.1 0.1 0.1 0 0 0-0.1 0 0 0-0.1zm2.4 0.2q0 0-0.1 0.1 0 0 0.1 0 0.1 0 0.1 0 0-0.1-0.1-0.1zm-0.8-0.3q-0.1-0.1-0.1 0-0.1 0-0.1 0.1 0.1 0 0.1 0 0.1-0.1 0.1-0.1zm-0.9-0.2q0 0 0 0.1 0.1 0 0.1 0 0-0.1-0.1-0.1zm1.4-0.1q-0.1 0-0.1 0.2 0 0.2 0 0.1 0.2-0.1 0.1-0.3zm-0.3-0.3q-0.2 0-0.3 0.1 0 0 0 0.2v0.1q0.1 0 0.2-0.1 0.1-0.1 0.1-0.2zm0.4 0q0 0.1 0 0.1 0.1 0 0.1-0.1 0 0-0.1 0zm-0.2-0.4l-0.5 0.2h0.1q0.2 0 0.4-0.2zm0.7 0.3q-0.1 0-0.1 0 0 0.1 0.1 0.1 0 0 0-0.1zm-1.4-0.5q-0.1 0-0.1 0.1 0.1 0.1 0.1 0 0-0.1 0-0.1zm0.2-0.3q-0.1 0-0.1 0 0 0.1 0 0.1 0.1 0 0.1 0 0-0.1 0-0.1zm-7.4 0.4q0.1 0.1 0.1 0 0-0.1-0.1-0.1 0 0 0 0.1zm0 0.4q0.1 0 0.2-0.1 0.2 0 0.2-0.1-0.2-0.1-0.3 0-0.1 0.1-0.1 0.2zm0.6 0q0 0 0-0.1-0.1-0.1-0.1 0 0 0.1 0.1 0.1zm-1.6 0q0 0 0-0.1 0-0.1 0-0.1-0.1 0-0.1 0.1 0 0.1 0.1 0.1zm1 0.7q0.1 0 0.2-0.1 0.1-0.2 0.1-0.3h-0.2zm-1.3-0.4q0.1 0 0.1-0.1 0.1 0 0.2 0v-0.1q-0.2 0-0.2 0.1-0.1 0-0.2 0.1zm1 0.2q0.1 0 0.1 0 0-0.1-0.1-0.1 0 0 0 0.1zm-1.5 0q0 0.1 0 0 0-0.1 0-0.1-0.1 0-0.1 0.1 0 0 0.1 0zm-0.3 0q0-0.1 0-0.1-0.1 0-0.1 0 0 0.1 0.1 0.1zm0.4 0.1q0 0.1 0 0.1 0.1 0 0.1-0.1-0.1 0-0.1 0zm1.5 0.4q0.1 0.1 0.1 0 0-0.1 0-0.1-0.1 0-0.1 0.1zm0.3 0.3q0-0.2-0.1-0.2-0.1 0-0.2 0.1-0.1 0-0.2 0zm-0.7-0.1q0.1 0 0.1-0.1 0-0.1 0-0.1-0.1 0-0.1 0.1 0 0.1 0 0.1zm-1 0q0.1 0 0.1-0.1 0 0-0.1 0 0 0.1 0 0.1zm-0.7-0.1q0.1 0 0.1 0 0-0.1-0.1-0.1 0 0.1 0 0.1zm2.5 1.5q0.1 0 0.1-0.1 0-0.1-0.1-0.1 0 0 0 0.1 0 0.1 0 0.1zm-0.8-1.1q0.1 0 0.1-0.1 0-0.1-0.1-0.1 0 0 0 0.1 0 0.1 0 0.1zm-0.8-0.1q0 0 0-0.1 0-0.1 0-0.1-0.1 0-0.1 0.1 0 0 0.1 0.1zm0.9 0.2q0.1 0 0.1-0.1-0.1 0-0.1 0 0 0.1 0 0.1zm-1.4-0.2q0.1 0 0.1 0 0-0.1-0.1-0.1 0 0 0 0.1zm-0.3 0q0.1 0 0.1-0.1 0 0-0.1 0 0 0.1 0 0.1zm2.1 1.3q0 0.1 0.1 0.1 0 0 0.1 0 0-0.1-0.1-0.1-0.1 0-0.1 0zm-1.1-1.1q0 0.1 0.1 0.1 0 0 0.1-0.1 0 0-0.1 0-0.1-0.1-0.1 0zm-0.9 0.1q0.1 0 0.1 0 0-0.1 0-0.1-0.1 0-0.1 0.1zm1.7 1.4q0 0 0-0.1 0-0.1 0-0.1-0.1 0-0.1 0.1 0 0.1 0.1 0.1zm-0.3-0.1q0 0 0.1 0 0-0.1-0.1-0.1 0 0 0 0.1zm0.2-1q0 0 0.1 0 0-0.1 0-0.1-0.1 0-0.1 0.1zm-0.6 0q0.1 0 0.1-0.1 0-0.1-0.1-0.1 0 0 0 0.1 0 0.1 0 0.1zm-0.8-0.1q0 0 0-0.1 0-0.1 0-0.1-0.1 0-0.1 0.1 0 0.1 0.1 0.1z"/>
				<path id="a" fill-rule="evenodd" class="s3" d="m141.4 46.2l0.1-0.2q0.2-0.1 0.3-0.2 0.1-0.1 0.2-0.2 0.1-0.1 0.2-0.1 0.3-0.1 0.5-0.2 0.3-0.1 0.5-0.2 0 0 0.2-0.2 0.2-0.1 0.3-0.1 0.3-0.1 0.6 0 0.3 0 0.6-0.1 0.1 0 0.3 0 0.2-0.1 0.4-0.1 0.3 0 0.5 0 0.2 0 0.3 0l0.2-0.2 0.4-0.1q0 0 0.3 0 0.3 0 0.3 0 0.1-0.1 0.2 0 0.1 0 0.1 0 0.1 0 0.1-0.1 0 0 0.1 0 0-0.1 0-0.1 0.1 0 0.2 0 0-0.1 0.1-0.1 0 0-0.1-0.1 0.2-0.1 0.3-0.2 0.1-0.1 0.1-0.3 0-0.1 0-0.3 0-0.1 0.1-0.3 0-0.1 0.1-0.2 0.2-0.2 0.2-0.2 0.1-0.2 0.2-0.4 0-0.2 0.1-0.4 0-0.1 0-0.3-0.1-0.2-0.1-0.4l0.1-0.2q0-0.1 0-0.2l0.1-0.1q0-0.4-0.2-0.4-0.3 0-0.5-0.1 0 0-0.2-0.1-0.1-0.2-0.2-0.2 0 0-0.1-0.1-0.1 0-0.2 0-0.2-0.1-0.3-0.1-0.1-0.1-0.2-0.1 0 0-0.2 0-0.1 0-0.2 0 0.1 0 0 0.3 0 0.2 0 0.2 0 0.1 0 0.2 0 0.1 0 0.2 0 0.1 0 0.3 0 0 0 0.1l-0.1 0.1q0 0.1-0.1 0.3 0 0.2 0 0.2h-0.1-0.2v-0.1l-0.1 0.4h0.1 0.1 0.1v0.1 0.1l-0.1 0.1h-0.1l-0.1-0.1-0.1 0.2q-0.1 0.3-0.5 0.5-0.3 0.2-0.7 0.3-0.3 0.2-0.7 0.2-0.4 0-0.7 0-0.3 0-0.4-0.1-0.1 0-0.2 0-0.1 0-0.1-0.1-0.1-0.1-0.3-0.2h-0.1q-0.2-0.1-0.4-0.2-0.2 0-0.4-0.3 0 0 0-0.3 0-0.3 0-0.4 0-0.1 0.1-0.4 0.2-0.2 0.3-0.3l-0.1-0.2q0.1 0 0.2-0.1 0.1-0.1 0.1-0.2l0.1-0.2 0.1-0.2 0.2 0.1 0.2-0.3 0.2-0.1v-0.2h0.2q0.3-0.3 0.6-0.6 0.3-0.2 0.8-0.4 0.1 0 0.2 0.1 0.1 0.1 0.2-0.2 0.1 0.1 0.4 0 0.4-0.1 0.5-0.1 0.6-0.1 1.2-0.1 0.6 0 1.3 0h0.3 0.2q0.6 0.1 1 0.3 0.5 0.3 1 0.5 0.3 0.1 0.7 0.2 0.4 0.1 0.5 0.4l0.1 0.3q0 0.1 0.2 0.1 0.1 0.1 0.1 0.2 0 0 0.2 0.2 0.1 0.2 0.1 0.2l0.1 0.2 0.3 0.4q-0.1 0-0.2 0-0.1 0-0.1 0.1l0.1 0.1-0.1 0.1v0.1l0.2 0.1-0.1 0.1h0.3q0 0.3-0.2 0.3-0.1 0.1-0.1 0.1v0.1l0.2 0.1q-0.1 0.2-0.1 0.2-0.1 0.1-0.1 0.2v0.1q0 0 0 0.3 0 0.2 0 0.3v0.1q0 0.2-0.1 0.4 0 0.2-0.3 0.2 0 0 0.1 0.1 0.1 0 0.1 0.1v0.1q-0.2 0.3-0.4 0.9-0.2 0.6-0.2 1 0 0.1 0 0.2 0 0.1 0 0.2l-0.1 1q0 0.1 0 0.2-0.1 0.1-0.2 0.1v0.1 0.3 0.1l-0.1 0.2q0 0 0 0.1 0 0-0.1 0.1 0 0 0 0.1 0 0.1 0.1 0.2 0 0.2 0.1 0.2 0.1 0.1 0.2 0.1 0.1 0 0.2 0 0.1 0 0.3 0 0.2 0 0.3 0l0.2-0.1q0-0.1 0.1-0.1 0.1 0 0.1-0.1h0.1q0.2-0.2 0.4-0.3 0.1 0 0.3-0.1h0.4q0 0.1 0.1 0.3 0 0.1 0.1 0.2l0.2 0.3v0.1h-0.1q-0.5 0.4-1 0.7-0.5 0.2-1 0.5h-0.2q-0.1 0-0.2 0-0.2 0.1-0.4 0.1-0.2 0-0.4 0-0.2 0-0.2 0-0.1 0-0.2 0-0.2 0-0.3 0-0.2-0.1-0.4-0.1-0.1 0-0.2 0-0.1 0.1-0.2 0.1-0.2 0-0.3 0-0.1 0-0.3-0.2-0.1-0.1-0.2-0.2-0.1-0.2-0.3-0.3-0.1-0.2-0.2-0.2-0.1 0-0.3 0-0.2 0.1-0.1 0.3-0.1 0-0.2 0.1-0.2 0.1-0.2 0.1-0.1 0-0.2 0v0.1q-0.1 0-0.3 0.2-0.1 0.1-0.2 0.1-0.1 0-0.2 0-0.2 0-0.3 0-0.3 0.1-0.6 0.1-0.3 0.1-0.6 0-0.5 0-0.9-0.2-0.3-0.2-0.7-0.4-0.1 0-0.1 0-0.1 0-0.1-0.1-0.1 0-0.3-0.1-0.3-0.1-0.3-0.1-0.6-0.3-1.1-0.8-0.4-0.4-0.8-0.9-0.1-0.1-0.2-0.1-0.1-0.1-0.2-0.1 0-0.1-0.1-0.2 0-0.1 0-0.2zm5.8 4.4q-0.1-0.1-0.1 0 0 0.1 0.1 0.1 0 0 0-0.1 0-0.1 0 0zm-1.3-2.6q0.1 0.1 0.2 0.2 0.1 0.2 0.1 0.3l-0.1 0.3q0 0 0.1 0.2 0 0.3 0.1 0.3 0 0.2 0.2 0.3 0.1 0.1 0.2 0.3h0.6q0.1-0.1 0.1-0.1 0.1-0.1 0.3-0.1 0.1-0.1 0.2-0.1 0.2-0.1 0.2-0.2v-0.4q0.2-0.5 0.2-1 0.1-0.4 0.2-1 0-0.2 0-0.4 0-0.2 0-0.4 0-0.1 0-0.2 0.1 0 0.1-0.1 0-0.2-0.1-0.3-0.2 0-0.3 0 0-0.1 0-0.3-0.1-0.3-0.1-0.3-0.2 0-0.4 0.1-0.1 0.1-0.2 0.2-0.1 0-0.3 0-0.1 0-0.2 0-0.1 0.2-0.2 0.3-0.1 0.1-0.1 0.2-0.1 0.1-0.1 0.1 0 0.2 0 0.2 0 0 0 0.1v0.1l-0.1 0.2q0 0 0 0.2 0 0.3-0.1 0.3l-0.1 0.2v0.1 0.1 0.2q0 0.1-0.1 0.2 0 0-0.1 0-0.1 0-0.1 0.1-0.1 0-0.1 0.1zm2.6 1.9h-0.3l0.1 0.1q0.1 0 0.2-0.1zm2.9 0.3q-0.1 0-0.1 0.1 0 0 0.1 0.1 0 0 0-0.1 0-0.1 0-0.1zm0.4 0q-0.1 0-0.1 0.1 0 0.1 0 0.1 0.1 0 0.1-0.1 0-0.1 0-0.1zm-3.1-0.3q0-0.1-0.1 0 0 0.1 0.1 0.1 0 0 0-0.1 0-0.1 0 0zm-4.2-0.6q0 0-0.1 0 0 0.1 0 0.1 0.1 0 0.1-0.1zm0.5 0.1q-0.1 0-0.1 0.1 0 0 0.1 0 0-0.1 0-0.1zm-0.5-0.3q-0.1 0-0.1 0.1 0 0.1 0.1 0.1 0 0 0-0.1 0-0.1 0-0.1zm9.3 0.6q0 0 0 0.1 0 0.1 0 0.1 0.1 0 0.1-0.1 0-0.1-0.1-0.1zm0.4 0q0 0 0 0.1 0.1 0 0.1 0 0-0.1-0.1-0.1zm0.2 0q-0.1 0-0.1 0.1 0 0.1 0.1 0.1 0 0 0-0.1 0-0.1 0-0.1zm-9.7-1.1v0.1h0.2v-0.1zm-0.1 0q-0.1 0-0.1 0 0 0.1 0.1 0.1 0 0 0-0.1zm0.7 0h-0.1l-0.1 0.1h0.1q0.1 0 0.1-0.1zm-0.8-0.8v0.1h0.3l0.1-0.1zm-0.2-0.1q0 0 0 0.1 0 0.1 0 0.1 0 0 0.1-0.1 0-0.1-0.1-0.1zm-0.8-0.1l0.1 0.1v-0.3zm1.5 0.1q-0.1 0-0.1 0.1 0 0.1 0.1 0.1 0 0 0-0.1 0-0.1 0-0.1zm0.1-0.1q-0.1 0-0.1 0.1 0.1 0 0.1 0 0-0.1 0-0.1zm-1.8-0.3q0 0 0 0.1 0 0.1 0 0.1 0.1 0 0.1-0.1 0-0.1-0.1-0.1zm0.4-0.1l-0.1 0.2q0.1 0 0.2-0.2 0.2-0.2 0.2-0.3-0.2 0-0.2 0.1 0 0.1-0.1 0.2zm1.2-0.4q-0.1 0.1 0.1 0.2 0.1 0 0.2 0v0.1l0.1-0.1q-0.1 0-0.1 0 0-0.1 0-0.1 0-0.1 0-0.2 0.1-0.1 0.2-0.1v-0.1q0-0.1 0.1-0.2 0.1-0.1 0.1-0.3-0.1 0-0.3 0.1-0.1 0.1-0.2 0.1-0.1 0-0.1-0.1-0.1 0-0.2 0.1 0 0.1 0 0.1 0 0.1 0.1 0.3 0.1 0.1 0.1 0.2zm-0.9 0.5q-0.1 0-0.1 0.1 0 0 0.1 0 0-0.1 0-0.1zm0.7-0.1q0 0.1 0 0.1 0 0.1 0 0.1 0.1 0 0.1-0.1 0 0-0.1-0.1zm-1-0.4l-0.1 0.1h0.1zm-0.2-0.2q-0.1 0-0.1 0.1 0 0.1 0 0.1 0.1 0 0.1-0.1 0-0.1 0-0.1zm-0.4-0.1q-0.1 0-0.1 0.1 0 0 0.1 0 0-0.1 0-0.1zm0.8-0.1q-0.1 0.1 0 0.1 0.1 0 0.2 0zm0.2-0.2q-0.1 0-0.1 0 0 0.1 0.1 0.1 0 0 0-0.1zm6 0.3q0 0.1 0 0.2 0.1 0 0.1 0 0-0.1-0.1-0.2zm-5.6-0.8q0 0 0 0.1 0.1 0 0.1 0 0-0.1-0.1-0.1zm6.8 0.7q0 0 0 0.1 0.1 0.1 0.1 0 0-0.1-0.1-0.1zm-1.8-0.3q-0.1 0-0.1 0.1 0 0.1 0.1 0.1 0 0 0-0.1 0-0.1 0-0.1zm-5.8-0.7h-0.1 0.2zm5.5 0.2q0 0 0 0.1 0.1 0 0.1-0.1 0 0-0.1 0zm-0.1-0.1q0 0 0 0.1 0 0 0.1 0 0-0.1-0.1-0.1zm2.6 0.3q-0.1 0-0.1 0 0 0.1 0 0.1 0.1 0 0.1-0.1zm-0.8-0.4q-0.1 0-0.1 0 0 0.1 0 0.1 0.1 0 0.1-0.1zm-2.8-0.5q-0.1-0.1-0.1 0 0 0.1 0 0.1 0.1 0 0.1-0.1zm3.2 0.2q-0.1 0-0.1 0.1 0 0.1 0.1 0 0 0.1 0 0 0-0.1 0-0.1zm-0.1 0q0 0-0.1 0 0 0.1 0.1 0.1 0 0 0-0.1zm-0.4-0.2q0 0 0 0.1 0 0.1 0 0.1 0.1 0 0.1-0.1 0-0.1-0.1-0.1zm0 0q0-0.1-0.1 0 0 0.1 0 0.1 0.1 0 0.1-0.1zm0.4 0q0 0.1 0 0.1 0.1-0.1 0.1-0.1 0 0-0.1 0zm-3.4-0.5q0 0-0.1 0.1 0 0 0.1 0 0-0.1 0-0.1zm2.5-1.1q-0.1 0-0.1 0-0.1 0-0.1 0l-0.1 0.4h0.1l0.2-0.1 0.1-0.1 0.2-0.1q-0.1 0-0.2 0 0-0.1-0.1-0.1zm-6.9-0.9q-0.1 0-0.1 0.1 0 0.1 0.1 0.1 0 0 0-0.1 0.1-0.1 0-0.1zm2.7-0.5q-0.1-0.1-0.1 0 0 0.1 0.1 0.1 0 0 0-0.1zm-3.5-1.7q0 0 0 0.1 0 0.1 0 0.1-0.1 0-0.1-0.1 0-0.1 0.1-0.1zm0.3-0.4q0 0 0 0.1 0 0-0.1 0 0-0.1 0.1-0.1zm9-0.6l0.1 0.2q0.1 0 0.1-0.1 0 0 0-0.1 0-0.1 0-0.1h-0.1z"/>
				<path id="vy" fill-rule="evenodd" class="s3" d="m156.7 41q0-0.1-0.2-0.1-0.2 0-0.5 0-0.3-0.1-0.6 0-0.3-0.1-0.3-0.1 0 0-0.1-0.1 0-0.2 0-0.2 0-0.2-0.1-0.3 0-0.1 0-0.2 0.1-0.1 0.1-0.1l4.8-0.5q0.1 0 0.3-0.1 0.2-0.1 0.2-0.1 0.6-0.1 1.3-0.2 0.7-0.1 1.3-0.1l0.8-0.1h0.1v0.4q0 0.1 0.1 0.3 0 0.2 0 0.3h0.1q0 0 0 0.1 0 0.2 0 0.2l-1.1 0.1q-0.1 0-0.2 0.1-0.2 0-0.3 0.1-0.1 0-0.2 0.1-0.1 0.1-0.1 0.3h0.1q0.1 0.4 0.3 0.7 0.1 0.3 0.4 0.5 0 0.1 0.2 0.2 0.1 0.2 0.1 0.2l0.1 0.1q0.1 0.1 0.2 0.2 0.1 0.2 0.2 0.3 0.1 0.2 0.2 0.4 0.1 0.1 0.1 0.1l0.1 0.1q0.1 0.1 0.2 0.2 0.1 0 0.3 0.1 0.1 0.1 0.2 0.2 0.1 0.1 0.1 0.1 0 0 0.2 0.1 0.1 0.1 0.2 0.3 0.2 0.2 0.3 0.3 0.1 0.2 0.1 0.2 0.2 0 0.3 0.1 0.1 0.1 0.3 0.1 0.1 0 0.2-0.1 0.1 0 0.2 0 0-0.1 0.1-0.3 0-0.2 0.1-0.4 0-0.3 0-0.5 0.1-0.2 0.1-0.3 0.4-0.5 0.6-1.1 0.3-0.6 0.6-1.1 0-0.1-0.1-0.2 0-0.1-0.1-0.2 0.4-0.1 0.5-0.3 0.2-0.3 0.3-0.6v-0.1q0-0.1-0.1-0.1 0 0-0.1 0h-1.5q-0.2-0.1-0.3-0.1-0.2 0-0.4 0-0.1 0-0.3-0.1-0.1-0.1-0.1-0.3-0.1-0.2-0.1-0.4 0-0.2 0.1-0.3 1.2-0.2 2.3-0.4 1.2-0.2 2.4-0.3l1.7-0.2q0.1 0.2 0.1 0.5 0 0.3 0.1 0.5 0 0 0 0.1v0.1q-0.1 0-0.5 0.1-0.3 0.1-0.5 0.1l-0.3 0.1h-0.2q-0.1 0.1-0.2 0.3-0.1 0.2-0.2 0.4-0.1 0.2-0.1 0.4-0.1 0.2-0.2 0.4-0.2 0.4-0.4 0.8-0.3 0.3-0.5 0.8 0 0-0.1 0.1 0 0.1 0 0.1-0.3 0.9-0.6 1.9-0.4 0.9-0.7 1.8-0.2 0.5-0.5 1-0.3 0.5-0.6 1 0 0-0.1 0.1 0 0.1-0.1 0.2 0 0.2-0.1 0.3 0 0.1-0.1 0.1-0.2 0.5-0.4 0.9-0.2 0.4-0.4 0.8l-0.1 0.1q0 0.1 0 0.1-0.1 0-0.1 0.1-0.1 0-0.1 0.1l-0.9 0.1q0 0-0.4-0.5-0.3-0.5-0.8-1.2-0.5-0.7-1.1-1.5-0.6-0.9-1.2-1.6-0.6-0.8-1-1.4-0.4-0.5-0.5-0.7-0.7-0.8-1.4-1.7-0.7-0.9-1.5-1.7zm8.5 9.1q-0.1 0-0.1 0 0.1 0.1 0.1 0.1 0.1 0 0-0.1 0-0.1 0 0zm0.3-0.2q0 0.1 0 0.2 0 0.1 0.1 0 0-0.2-0.1-0.2zm-3.8-6q0 0.1 0.1 0.1 0.2 0.1 0.4 0.1 0.2 0 0.3 0.1 0.2 0 0.3-0.1v-0.1q-0.1 0-0.2-0.1-0.1 0-0.1-0.1-0.1-0.1-0.2-0.1h-0.1q0 0-0.1 0h-0.1q-0.1 0-0.2 0.1-0.2 0-0.1 0.1zm1.6 0.1q-0.1 0-0.1 0.1h0.1zm-3 0.2v0.1l0.2-0.2zm-0.8-0.4l0.5 0.5q0.2-0.2 0.3-0.4 0.1-0.2 0.1-0.4 0 0-0.1 0.1-0.1 0.1-0.1 0.1h-0.2l-0.1-0.5-0.1 0.1q-0.1 0.1-0.1 0.1-0.1 0.1-0.1 0.2-0.1 0.1-0.1 0.2zm1.1-0.4q-0.1 0-0.1 0.1 0 0.1 0.1 0.1 0-0.1 0-0.1 0-0.1 0-0.1zm-0.2-0.6v0.3q0.2-0.1 0.2-0.1-0.1-0.1-0.1-0.2zm-0.4 0q-0.1 0-0.1 0 0.1 0.1 0.1 0.1 0.1 0 0-0.1zm0.2-0.2q0 0 0 0.1 0.1 0 0.1 0-0.1-0.1-0.1-0.1zm-0.2-0.3q-0.1 0-0.1 0.1 0.1 0.1 0.1 0.1 0.1-0.1 0-0.1 0-0.1 0-0.1zm0.2-0.2q0 0.1 0 0.1 0 0.1 0.1 0.1 0 0 0-0.1 0-0.1-0.1-0.1zm0.6-0.4q0 0-0.1 0 0 0.1 0.1 0.2 0 0 0.1-0.1 0-0.1-0.1-0.1zm-0.7 0q0 0 0 0.1 0 0.1 0.1 0.1 0 0 0-0.1 0-0.1-0.1-0.1zm0.4 0q0 0.1 0.1 0.1 0 0 0-0.1 0 0-0.1 0zm-1.4 0q-0.1 0-0.1 0.1 0.1 0 0.1 0 0.1 0 0 0 0-0.1 0-0.1zm-0.2-0.2q-0.1 0 0 0.1 0 0.1 0 0.1 0.1-0.1 0-0.1 0-0.1 0-0.1zm1.7-0.1q-0.1 0 0 0.1 0 0 0.1 0 0 0 0-0.1 0 0-0.1 0zm-1.1-0.3l-0.1 0.1v0.1zm0.3 0q0 0 0 0.1 0 0.1 0 0.1 0.1 0 0.1-0.1 0-0.1-0.1-0.1zm0.4-0.7q0 0-0.1 0-0.1 0 0 0.1 0.1 0 0.1-0.1zm-1-0.3l-0.1 0.2 0.2 0.1zm-0.7 0.2q0 0.1 0.1 0.1 0 0 0-0.1 0-0.1-0.1 0zm23.5 14.3l-1.2 0.6q-1 0.4-2-0.1-0.9-0.4-1.3-1.6-0.1 0-0.1-0.1 0-0.1-0.1-0.2 0-0.1 0-0.2-0.1-0.4-0.1-0.8-0.1-0.5 0-0.8 0.1-0.4 0.3-0.6 0.2-0.3 0.6-0.5 0.2-0.1 0.3-0.1 0 0 0.1 0 0-0.1 0.1-0.1 0.1 0 0.3-0.1l1.1 0.3q0 0 0.1 0.1 0.2 0.1 0.3 0.3 0.1 0.1 0.2 0.3 0.1 0.1 0.1 0.1l0.1 0.1q0 0.1 0.2 0.1 0.2 0 0.3 0.2l0.1 0.2h0.1q0 0 0.1 0.1 0.2 0.1 0.2 0.1l0.3 0.2q0.1 0 0.1-0.1 0 0 0.1-0.1l-0.1-0.3q0 0 0.1-0.2 0.1-0.2 0.1-0.2 0.2-0.5 0.3-1 0.1-0.5 0.2-1 0.1-0.1 0.1-0.3 0.1-0.1 0.1-0.3 0-0.1-0.2-0.1-0.1 0.1-0.2-0.1 0-0.1 0-0.1-0.1-0.2-0.1-0.2-0.2-0.7-0.5-1.3-0.3-0.6-0.8-1l-0.5-0.4q-0.2-0.2-0.2-0.4 0-0.2-0.2-0.4 0 0-0.1-0.1 0-0.1-0.1-0.2 0-0.1-0.1-0.1-0.1-0.1-0.1-0.1 0-0.1-0.1-0.2-0.2-0.2-0.2-0.2-0.1-0.2-0.2-0.2-0.2-0.1-0.3-0.3-0.1-0.2-0.1-0.3 0 0-0.1-0.1 0-0.1-0.1-0.2-0.2-0.1-0.2-0.1v-0.2h-0.2q-0.1-0.1-0.1-0.3-0.1-0.2-0.2-0.3l-0.2-0.7q-0.1-0.2-0.3-0.3-0.2-0.2-0.3-0.3-0.3-0.2-0.5-0.4-0.2-0.3-0.4-0.5-0.1-0.2-0.4-0.4-0.1-0.1-0.3-0.2v-0.2l0.3-0.1q-0.2 0-0.3-0.1-0.3 0-0.5 0-0.2 0-0.4 0-0.2 0.1-0.4 0-0.3 0-0.4-0.1-0.2-0.1-0.2-0.3 0-0.1 0.1-0.2 0.1-0.1 0.2-0.2h0.7q0.6-0.1 1.2-0.1 0.6-0.1 1.3-0.2 0 0 0.2 0.1 0.3-0.1 0.3-0.1h0.1q0.1 0 0.2 0 0.2 0 0.4-0.1 0.2 0 0.3 0 0.2-0.1 0.2-0.1l2.6-0.3q0.3-0.1 0.7-0.2 0.3-0.1 0.7-0.2l0.1 0.1 0.1 1.1q0 0.1-0.1 0.1h-0.1-0.1q-0.1 0-0.2 0-0.2 0-0.2 0h-0.1l-0.3 0.1-1.3 0.2v0.1q0 0.3 0.1 0.6 0.2 0.2 0.3 0.4 0.1 0.2 0.1 0.4 0.1 0.2 0.3 0.4 0 0 0.1 0.1 0.1 0 0.2 0.1 0.1 0.1 0.2 0.2 0.1 0.1 0.1 0.1 0.2 0.2 0.3 0.4 0.1 0.3 0.3 0.5 0.1 0.3 0.2 0.6 0.1 0.2 0.1 0.4 0.1 0 0.1-0.1 0-0.2 0-0.2v0.1h0.1q0.1 0.1 0.1 0.1 0 0.2 0.2 0.4 0.2 0.3 0.5 0.6 0.2 0.3 0.4 0.5 0.2 0.2 0.3 0.2l0.5-0.6-0.1-0.2q0-0.3 0.3-0.7 0.2-0.3 0.4-0.6 0-0.1 0.1-0.3 0-0.2 0.1-0.3v-0.2q0.1-0.2 0.3-0.3 0.1 0 0.2-0.1v-1.1q0.1-0.2 0.1-0.5 0.1-0.3 0.2-0.5 0.2-0.4 0.2-0.6 0-0.2 0-0.6-0.3 0.1-0.6 0.1-0.3-0.1-0.6-0.1-0.1 0-0.1 0-0.1-0.1-0.1-0.2v-0.8-0.1q1-0.1 2.3-0.2 1.3-0.2 2.3-0.3h0.2l0.1 0.7q-0.1 0.3-0.4 0.3-0.2 0-0.4 0h-0.3q-0.2 0-0.3 0.1-0.1 0-0.1 0.1-0.1 0.1-0.1 0.3 0 0.1-0.1 0.3 0 0-0.2 0.3-0.1 0.2-0.2 0.3 0 0 0 0.1-0.1 0.1-0.1 0.3-0.1 0.1-0.1 0.2 0 0.1 0 0.1-0.1 0.2-0.2 0.6-0.1 0.2-0.2 0.6-0.1 0.3-0.2 0.6-0.1 0.3-0.2 0.5-0.1 0.2-0.1 0.4 0 0.2 0 0.3-0.2 0.5-0.4 0.9-0.1 0.4-0.3 0.8 0 0.1-0.1 0.4-0.1 0.2-0.1 0.3v0.3q0 0-0.2 0.2-0.2 0.2-0.2 0.3-0.1 0.2-0.2 0.5-0.1 0.3-0.2 0.6l-0.2 0.2q-0.2 0.3-0.2 0.5 0 0.3-0.1 0.5-0.1 0.1-0.2 0.4-0.1 0.2-0.1 0.3-0.1 0.1-0.1 0.3 0 0.2-0.3 0.3h-0.2q-0.1 0.1-0.1 0.2 0 0.1-0.1 0 0 0 0.1 0 0.1 0 0.2 0.1 0.1-0.2 0.2-0.2 0 0.4-0.2 0.9-0.2 0.5-0.4 0.9 0 0-0.1 0.3-0.1 0.2-0.1 0.3 0 0-0.2 0.1-0.1 0.1-0.2 0.2-0.1 0-0.1 0.1-0.1 0.1-0.1 0.1h0.1l0.1 0.2q-0.1-0.1-0.2 0 0 0-0.1 0.1 0 0.1 0 0.2 0 0.1 0 0.1h0.1v0.3l-0.1 0.1 0.1 0.2q0 0-0.1 0.2-0.1 0-0.2 0.1 0-0.1-0.1-0.1-0.1 0-0.1 0v-0.1l0.1-0.2q0-0.2-0.2-0.2-0.1 0-0.2 0-0.1 0-0.2 0.1-0.1 0.2-0.1 0.3 0 0.1 0.2 0.2 0.1 0 0.2-0.1v0.1 0.2h0.1q0 0.1-0.1 0.2 0 0 0 0.1-0.1 0.1-0.1 0.2h-0.1q0.1 0.2-0.1 0.4-0.1 0.2-0.3 0.3zm-2.6-0.7l-0.1 0.1v0.1l0.1-0.1zm0.3-0.1q0 0-0.1 0 0 0 0 0.1 0.1 0 0.1-0.1zm-0.7-0.1v0.2q0-0.2 0-0.2zm-0.3 0.1q0 0-0.1 0 0 0.1 0 0.1 0.1 0 0.1-0.1zm3.7-0.5q-0.1 0-0.1 0.1 0 0.1 0.1 0.1 0 0 0-0.1 0-0.1 0-0.1zm-3.9 0.4q0 0 0 0.1 0 0 0.1 0 0-0.1-0.1-0.1zm-0.2 0q0 0 0.2 0v-0.1zm4-0.6q0 0 0 0.1 0 0.1 0 0.1 0.1 0 0.1-0.1 0-0.1-0.1-0.1zm-3.7 0.5q-0.1 0-0.1 0 0.1 0.1 0.1 0.1 0 0 0-0.1zm-0.2-0.2q0 0 0 0.1 0 0.1 0 0.1 0.1 0 0.1-0.1 0-0.1-0.1-0.1zm3.7-0.8q0.1 0 0.1 0.1 0 0.1 0 0.1-0.1 0-0.1-0.1 0-0.1 0-0.1zm-2-0.3l0.1 0.1 0.1-0.2zm0.6 0q-0.1 0-0.1 0 0 0 0.1 0 0.1 0 0 0zm2.7-0.6l-0.2 0.2zm-3.2 0.4q-0.1 0 0 0.1 0 0.1 0 0.1 0.1 0 0-0.1 0-0.1 0-0.1zm0.2 0q0 0 0 0.1 0-0.1 0-0.1zm0.3 0q0 0.1 0.1 0.1 0 0 0-0.1 0 0-0.1 0zm1.6-0.4l0.1 0.1q0-0.1-0.1-0.1zm-1.7 0.2q0 0 0 0.1 0 0 0.1 0 0 0 0-0.1 0 0-0.1 0zm0.5-0.1q0 0 0 0.1 0 0.1 0.1 0.1 0-0.1 0-0.1 0-0.1-0.1-0.1zm1.6-0.2l0.1 0.1zm-1.6 0.2q-0.1 0-0.1 0 0 0.1 0.1 0.1 0 0 0-0.1zm1.5-0.2q0 0.1 0 0 0.1 0 0.1 0-0.1 0-0.1 0zm-1.7 0.1q0 0 0 0.1 0 0.1 0 0.1 0.1 0 0.1-0.1 0-0.1-0.1-0.1zm2.1-0.2q0 0 0 0.1 0.1 0 0.1-0.1 0 0-0.1 0zm0.7-0.1v0.1h-0.1zm-2.8 0q0 0.1 0 0.1 0.1 0 0.1-0.1 0 0-0.1 0zm1.8-0.2q-0.1 0-0.1 0 0 0.1 0.1 0.1 0 0 0-0.1zm0.9-0.2v0.1l0.2-0.2q0-0.1 0-0.2 0 0 0-0.2 0-0.1-0.1-0.1 0 0.2 0 0.3 0 0.1-0.2 0.2zm-5.9 0.7v0.1h0.2v-0.1zm2-0.3q-0.1 0-0.1 0.1 0.1 0 0.1 0 0-0.1 0-0.1zm3.7-0.4q-0.1 0-0.1 0 0 0.1 0.1 0.1 0 0 0-0.1 0-0.1 0 0zm0-0.2q0 0 0 0.1 0 0.1 0 0 0.1 0 0.1 0 0-0.1-0.1-0.1zm0.2 0q-0.1 0-0.1 0.1 0 0 0.1 0 0-0.1 0-0.1zm-5.9 0.4q-0.1 0-0.1 0.1 0 0 0.1 0 0 0 0-0.1zm5.5-0.4q0 0.1 0 0.1 0.1 0 0.1-0.1-0.1 0-0.1 0zm0.2-0.1q0 0.1 0 0.1 0.1 0 0.1-0.1-0.1 0-0.1 0zm-0.1 0q0-0.1 0-0.1 0 0 0 0.1zm-3.7 0.2q0 0 0 0.1 0 0.1 0 0 0.1 0 0.1 0 0-0.1-0.1-0.1zm4.6-1.5q-0.1 0-0.1 0.1 0 0 0.1 0 0 0 0-0.1zm-0.7 0q0 0.1 0.1 0 0 0-0.1 0zm0.2 0q-0.1 0-0.1 0 0.1 0.1 0.1 0.1 0 0 0-0.1zm0.4-0.1v0.1l0.1-0.1zm-0.2 0q0-0.1 0 0-0.1 0 0 0zm0.1-0.3q-0.1 0-0.1 0 0 0.1 0.1 0.1 0 0 0-0.1zm-0.1-0.1q-0.1 0-0.1 0.1 0 0.1 0.1 0.1 0-0.1 0-0.1 0-0.1 0-0.1zm-0.1 0l0.1-0.1zm0.3-0.3q0 0 0 0.1 0 0 0.1 0 0-0.1-0.1-0.1zm0.2-0.2q-0.1 0.1-0.1 0.1 0 0.1 0.1 0.1 0 0 0-0.1 0-0.1 0-0.1zm0.3-0.3q0.1 0.1 0.1 0.2l0.1-0.1q0-0.2-0.2-0.1zm0-0.3q0 0 0 0.1 0.1 0 0.1-0.1 0 0-0.1 0zm0.3-0.3q-0.1 0-0.1 0.1 0 0 0.1 0 0-0.1 0-0.1zm-0.2-0.1h-0.1zm-0.9-0.2q-0.1 0-0.1 0.1 0 0 0.1 0 0 0 0-0.1zm-0.5-0.2q-0.1 0-0.1 0.1 0 0.1 0.1 0 0-0.1 0-0.1zm0.1 0q0 0 0 0.1 0.1 0 0.1 0-0.1-0.1-0.1-0.1zm0.3-0.1v0.1zm0.8-0.1h0.1zm0.3-0.1q-0.1 0-0.1 0 0 0.1 0.1 0.1 0 0 0-0.1 0-0.1 0 0zm0.2-0.1q-0.1 0-0.1 0.1 0 0.1 0.1 0.1 0 0 0-0.1 0-0.1 0-0.1zm-1 0.1l-0.1 0.1zm0.2 0q-0.1 0-0.1 0.1 0.1 0.1 0.1 0.1 0 0 0-0.1 0-0.1 0-0.1zm-0.8 0l0.1 0.1h-0.1q0.1 0 0.2-0.1 0.1 0 0.1 0 0-0.1-0.2-0.1zm0.8-0.2q-0.1 0 0 0.1 0 0.1 0 0.1 0.1 0 0-0.1 0-0.1 0-0.1zm0.3 0q0 0 0 0.1 0.1 0 0.1 0 0-0.1-0.1-0.1zm0.3 0q-0.1 0-0.1 0 0 0.1 0.1 0.1 0 0 0-0.1zm-0.6-0.1q0-0.1-0.1 0 0 0.1 0 0.1 0.1 0 0.1-0.1zm0.6-0.1h-0.1v0.1h0.1zm0.2 0q0 0.1 0 0.1 0.1 0 0.1-0.1 0 0-0.1 0zm-0.5 0q-0.1 0 0 0 0 0.1 0 0.1 0 0 0-0.1zm0.4-0.2q-0.1 0-0.1 0.1 0 0.1 0.1 0.1 0 0 0-0.1 0-0.1 0-0.1zm-1.9 0.2q0 0 0 0.1 0 0 0.1 0 0-0.1-0.1-0.1zm1.5-0.2q0 0 0 0.1 0 0.1 0 0.1 0.1-0.1 0.1-0.1 0-0.1-0.1-0.1zm0.2-0.1q-0.1 0-0.1 0 0 0.1 0 0.1 0.1 0 0.1-0.1zm0.6-0.1q0 0 0 0.1 0.1 0 0.1-0.1 0 0-0.1 0zm-2.6 0.2q0 0 0 0.1 0 0.1 0.1 0.1 0-0.1 0-0.1 0-0.1-0.1-0.1zm0.2 0q-0.1 0-0.1 0.1 0 0 0.1 0 0-0.1 0-0.1zm1.4-0.2v0.1zm-2 0.2l0.1 0.1v-0.1zm1.7-0.3q0 0 0 0.1 0 0.1 0 0.1 0.1-0.1 0.1-0.1 0-0.1-0.1-0.1zm1.1-0.2q0 0-0.1 0 0 0.1 0 0.1 0.1 0 0.1-0.1zm-2.1-0.2q-0.1 0-0.1 0.1 0 0.1 0.1 0.1 0.1 0 0.1-0.1-0.1-0.1-0.1-0.1zm0.9-0.4q0 0 0 0.1 0.1 0 0.1 0 0-0.1-0.1-0.1zm-1.9 0.1q0 0 0 0.1 0.1 0 0.1 0 0-0.1-0.1-0.1zm2.5-0.3q0 0 0 0.1 0 0.1 0.1 0.1 0 0 0-0.1 0-0.1-0.1-0.1zm-0.3 0q0 0 0 0.1 0 0 0.1 0 0-0.1-0.1-0.1zm0.6-0.1q0 0 0 0.1 0 0.1 0 0.1 0.1 0 0.1-0.1 0-0.1-0.1-0.1zm-1 0.1q0.1 0 0.1 0 0 0-0.1 0zm0.6-0.1q-0.1 0-0.1 0.1 0 0.1 0.1 0 0.1 0 0 0 0-0.1 0-0.1zm0.7-0.1q0 0 0 0.1 0 0 0.1 0 0-0.1-0.1-0.1zm-1.5 0.1h0.1zm1.4-0.2q0 0.1 0 0.1 0 0.1 0.1 0.1 0 0 0-0.1 0-0.1-0.1-0.1zm-0.4 0v0.1zm0.2 0l0.1 0.1v-0.1zm0.4-0.1q0 0.1 0 0.1 0 0.1 0 0.1 0.1 0 0.1-0.1 0-0.1-0.1-0.1zm0.1 0q0 0 0 0.1 0 0.1 0.1 0.1 0 0 0-0.1 0-0.1-0.1-0.1zm0.2 0q0 0 0 0.1 0 0 0.1 0 0-0.1-0.1-0.1zm-2.5 0.2q-0.1 0-0.1 0 0 0.1 0.1 0.1 0 0 0-0.1zm1.7-0.2q0 0.1 0 0.1 0.1 0 0.1-0.1 0 0-0.1 0zm0.2-0.3q-0.1 0 0 0.1 0 0.1 0 0.1 0.1-0.1 0-0.1 0-0.1 0-0.1zm-3.1-0.7q-0.1 0-0.1 0 0 0.1 0.1 0.1 0 0 0-0.1zm0.2-0.1q0 0 0 0.1 0 0.1 0.1 0.1 0 0 0-0.1 0-0.1-0.1-0.1zm-0.5-0.3q0 0 0 0.1 0 0.1 0 0.1 0.1 0 0.1-0.1 0-0.1-0.1-0.1zm0.1-0.3q-0.1 0.1-0.1 0.1 0 0.1 0.1 0.1 0 0 0-0.1 0-0.1 0-0.1zm-2.3-0.2q0 0.1 0 0.1 0 0 0-0.1zm3.9-0.5q0.1 0 0.1 0.1 0 0-0.1 0 0-0.1 0-0.1zm-3.9 0.2l0.1 0.1v-0.1zm-0.2-0.2v0.1l0.1 0.1q0 0 0.1-0.1l0.1-0.1v-0.1h-0.1-0.1zm-0.5-0.1q-0.1 0-0.1 0.1 0 0 0.1 0 0-0.1 0-0.1zm0.3-1.5q0 0.1 0.1 0.2 0.1 0 0.1 0.1 0.1 0 0.1 0-0.1-0.1-0.1-0.2-0.1 0-0.1-0.1-0.1 0-0.1 0zm-1.7-1v0.4h0.1q0-0.2-0.1-0.2 0-0.1 0-0.2zm-2.6-1.6q-0.1 0-0.1 0 0 0.1 0.1 0.1 0.1 0 0-0.1zm6.2 16.3q0 0 0 0.1 0.1 0 0.1 0 0-0.1-0.1-0.1z"/>
				<path id="Hot ‘N’ " class="s3" d="m3.3 45.7q-0.2 0-0.3 0-0.1-0.1-0.1-0.1 0-0.1 0-0.3 0.1-0.1 0.1-0.4 0-0.1 0.1-0.1 0-0.1 0.1-0.2 0.1 0 0.1 0.1 0.1 0 0.1 0.1 0 0 0.1 0.1 0.1 0.1 0.3 0.1h0.2l0.2-0.1q0.1 0 0.2 0 0.1-0.1 0.1-0.1 0.3 0 0.3-0.1 0-0.1 0-0.4 0.1-0.4 0.1-0.9 0-0.5 0-1l-0.1-0.2q0.1-0.2 0.1-0.5 0.1-0.3 0.1-0.5 0-0.1 0-0.1 0 0 0-0.1v-0.1l-0.1-0.1 0.1-0.5h-0.1l0.2-1.6-0.1-0.2q0 0 0.1-0.3 0-0.3 0-0.3l-0.1-0.2v-0.1q0 0 0.1-0.1 0-0.2 0-0.2v-1q0 0-0.1-0.1 0-0.2 0-0.2 0-0.1 0-0.3 0.1-0.2 0.1-0.3 0-0.1 0-0.3 0-0.3 0-0.4l-0.1-0.1q0 0 0-0.1v-0.1l0.1-0.2h-0.1q0-0.1 0-0.3 0-0.2 0-0.4 0-0.3 0-0.4 0-0.3 0-0.3 0.1-0.2 0.1-0.3 0-0.1 0-0.2 0-0.1 0-0.1 0 0 0-0.3 0-0.2 0-0.3h0.1v-0.1l-0.1-0.4q0-0.6 0-1.3 0.1-0.8 0.1-1.5-0.3-0.1-0.6-0.1-0.3 0-0.7 0 0 0-0.2-0.1-0.3 0-0.3 0-0.1 0-0.2-0.1-0.2 0-0.2 0-0.1-0.1-0.1-0.3 0-0.1 0-0.3 0-0.2 0.2-0.3 0.2 0 0.4-0.2l0.1-0.1 0.3 0.1q0.1 0 0.3-0.1 0.2-0.1 0.3-0.1h0.1q0.2 0 0.3 0.1 0.2 0.1 0.4 0.1 0.2 0.1 0.4 0.1 0.2 0 0.3 0 0.8 0 1.6 0 0.7-0.1 1.5-0.1 0.1 0 0.3 0 0.2 0 0.4 0 0.2-0.1 0.4-0.1 0.2 0 0.3 0 0.1 0 0.2 0 0-0.1 0-0.1 0 0 0.1 0 0.1 0 0.1 0.1 0 0 0.1 0h0.2q0 0 0.2 0 0.1 0 0.3 0 0.2 0 0.4 0 0.1 0 0.2 0h0.1q0 0.1 0 0.4 0 0.2 0 0.3v0.1 0.1q0 0-0.2 0.1-0.1 0-0.2 0h-0.9l-0.1 0.2q0.1 0.1 0.2 0.2 0.1 0 0.1 0l-0.1 1.3q0.1 0.2 0.1 0.2 0 0-0.1 0.2 0 1-0.1 1.9 0 1 0 2 0 0.3-0.1 0.5 0 0.3 0 0.6 0 0.2 0.1 0.5 0.1 0.2 0.3 0.4 0.1 0 0.4 0 0.4 0 0.5 0 0.2 0 0.4 0 0.3 0 0.7 0.1 0.3 0 0.6 0 0.3 0 0.4 0 0.1 0 0.3 0 0.2 0.1 0.2 0.1h0.1q0.3 0 0.6-0.3 0.3-0.3 0.4-0.5 0-0.5 0-1 0.1-0.6 0.2-1l0.1-0.1v-0.1q0-0.3 0-0.5 0-0.3 0-0.6 0.1-0.3 0.1-0.6 0.1-0.3 0.1-0.5 0-0.2 0-0.3 0-0.1-0.2-0.3 0 0 0-0.3-0.1-0.3-0.1-0.3 0-0.1 0.1-0.2 0.1-0.2 0.1-0.2v-0.2q0-0.1 0-0.2 0 0 0.1 0l-0.2-0.3q0-0.1 0-0.3 0-0.3 0-0.4l-0.1-0.1h-0.2q-0.4 0-0.7 0.1-0.3 0.1-0.7 0.1-0.1 0-0.1-0.1-0.1-0.2-0.1-0.4 0-0.2 0-0.4 0-0.2 0-0.2v-0.2q0 0 0.2 0 0.2 0 0.2 0 0.6-0.1 1.3-0.1 0.7 0 1.5 0 0.8-0.1 1.6-0.1 0.7-0.1 1.2-0.2l2.1 0.1q0.2 0 0.4 0.1 0.2 0 0.3 0.1 0.2 0 0.3 0.2 0.1 0.1 0.1 0.4v0.1q0 0-0.2 0.1-0.1 0.2-0.1 0.2-0.1 0-0.3 0-0.3 0-0.5 0-0.2-0.1-0.5-0.1-0.2 0-0.3 0 0 0-0.2 0.1-0.1 0-0.1 0l-0.2 0.1h0.1 0.5q0 0.1 0 0.2 0 0 0 0.1 0 0 0 0.1 0.1 0.9 0 1.8 0 1 0.1 1.8l0.1 0.3q0 0 0 0.2 0 0.2 0 0.2 0.1 0.4 0.2 0.6 0.1 0.2 0.1 0.6-0.1 0-0.1 0.1 0 0.2 0 0.2l-0.1 0.1q0 0.1 0 0.2 0.1 0.1 0.1 0.1 0 0.1 0 0.1l-0.2 0.3q-0.1 0.2-0.1 0.5-0.1 0.3-0.1 0.5-0.1 0.4 0 0.8 0.1 0.4 0.1 0.8 0 0.1-0.1 0.4 0 0.2 0 0.6-0.1 0.3-0.1 0.6 0 0.3 0 0.3-0.1 0.4 0 0.7 0 0.3 0 0.6 0 0.1 0 0.3 0 0.2 0 0.5 0 0.3 0 0.6 0 0.2 0 0.4v0.1q0 0.2 0 0.4 0.1 0.3 0.1 0.6 0 0.3 0 0.5 0 0.3 0 0.3 0 0.1 0 0.2 0 0.1 0 0.2v0.3h0.1q0.1 0 0.2 0 0.2 0 0.3 0 0.3-0.1 0.5 0 0.1 0 0.2 0.1 0.1 0.1 0.3 0.1 0.1 0.1 0.4 0 0.1 0.1 0.1 0.2 0.1 0.2 0.1 0.2 0 0.2-0.1 0.3 0 0.1-0.1 0.2-0.1 0-0.2 0-0.2 0-0.2 0-1.3 0.2-2.8 0.2-1.4-0.1-2.7-0.1-0.7 0.1-1.5 0-0.7 0-1.4 0.1h-0.3q-0.1 0-0.3 0.1-0.2 0-0.4 0-0.1 0-0.2 0-0.1-0.1-0.1-0.1 0 0 0-0.2 0-0.3 0-0.3 0-0.1 0-0.2-0.1-0.2-0.1-0.3l0.1-0.1h0.6l0.1-0.2q0.4 0 0.6-0.2 0.2-0.2 0.3-0.6 0-0.2 0-0.4 0.1-0.3 0-0.5 0 0-0.1-0.2-0.1-0.2-0.1-0.2 0 0 0.1-0.2 0-0.1 0.1-0.2 0.1-0.2 0.1-0.3 0.1-0.2 0.1-0.2 0-0.7-0.2-1.3-0.2-0.6-0.2-1.2 0.1-0.4 0.3-0.7 0.3-0.4 0.3-0.7 0-0.1 0-0.2-0.1-0.1-0.3-0.1-0.1-0.1-0.2-0.1-0.1-0.1-0.3-0.1l-0.2-0.2h-0.2q0 0-0.3 0-0.2 0-0.4 0.1-0.3 0-0.4 0.1-0.2 0-0.3 0.1 0 0-0.2 0-0.2-0.1-0.3-0.1 0 0-0.2-0.1-0.1-0.1-0.1-0.1h-0.1q-0.3 0-0.5 0-0.1 0.1-0.3 0.2-0.1 0.1-0.2 0.2-0.1 0.2-0.2 0.4-0.1 0.1-0.2 0.2 0 0.1-0.1 0.2l-0.2 2.7q0.1 0.5 0 1 0 0.5 0.1 0.9 0 0.1 0 0.2 0 0.1 0 0.3 0.1 0.1 0.1 0.3l0.1 0.1q0 0-0.1 0.1 0 0.1 0.1 0.2 0 0.1 0 0.2 0.1 0.3 0.1 0.3 0.1 0.1 0.5 0.2 0.3 0.1 0.3 0.4 0 0.4-0.1 0.7 0 0.1 0 0.1-0.1 0.1-0.2 0.1-0.1 0-0.5 0-0.4 0.1-0.5 0.1h-2q0 0-0.1 0-0.1 0-0.3 0-0.1 0-0.3 0-0.1 0-0.1 0 0 0-0.3 0-0.2 0-0.4 0-0.3 0-0.5 0-0.2 0-0.3 0h-0.1q-0.1 0-0.2 0-0.1 0-0.1 0 0 0-0.1 0.1 0 0-0.2 0-0.1 0-0.3 0-0.3 0-0.6 0-0.3-0.1-0.6-0.1-0.2 0-0.3 0-0.1 0-0.1-0.1 0-0.1-0.1-0.2 0-0.1 0-0.2 0-0.1-0.1-0.1zm5-1.7q-0.1 0-0.1 0.1 0 0 0.1 0 0-0.1 0-0.1zm-0.9-5.3q0-0.1 0 0-0.1 0.1 0 0.1 0 0 0-0.1zm-0.1-0.3q0 0 0 0.1 0.1 0 0.1 0 0-0.1-0.1-0.1zm-0.2-0.4q0 0 0 0.1 0 0.1 0 0.1 0.1 0 0.1-0.1 0-0.1-0.1-0.1zm0-1.1q-0.1 0-0.1 0.1 0 0.1 0.1 0.1 0 0 0-0.1 0-0.1 0-0.1zm-0.3-0.4q-0.1 0-0.1 0.1 0 0 0.1 0 0-0.1 0-0.1zm-0.1-1.2q0 0-0.1 0.1 0 0 0.1 0 0.1 0 0.1 0 0-0.1-0.1-0.1zm-0.3-0.5q0 0-0.1 0.1 0 0.1 0.1 0.1 0 0 0-0.1 0.1-0.1 0-0.1zm15.6-7.2q0 0.1 0 0.1-0.1 0-0.1-0.1 0 0 0.1 0zm-0.8 17.8q-0.1 0-0.1 0 0 0.1 0.1 0.1 0 0 0-0.1zm0.4-0.3q-0.1 0-0.1 0.1 0 0.1 0.1 0.1 0.1 0 0.1-0.1 0-0.1-0.1-0.1zm-0.4 0q-0.1 0-0.1 0 0 0.1 0.1 0.1 0 0 0-0.1zm-0.5-0.2q-0.1 0-0.1 0.1 0 0.1 0.1 0.1 0 0 0-0.1 0-0.1 0-0.1zm0.5-0.1q-0.1 0-0.1 0 0 0.1 0.1 0.1 0 0 0-0.1zm-2.2-1q-0.1 0-0.1 0 0 0.1 0.1 0.1 0 0 0-0.1zm0.8-0.2q0 0 0 0.1 0 0.1 0 0.1 0.1 0 0.1-0.1 0-0.1-0.1-0.1zm-1.1-0.6q-0.1-0.1-0.1 0.1 0 0.2 0.1 0.2 0.1-0.2 0-0.3zm-0.4-0.5q-0.1 0-0.1 0 0 0.1 0.1 0.1 0 0 0-0.1zm-0.3-0.7q-0.1 0-0.1 0 0 0.1 0.1 0.1 0 0 0-0.1zm1.1 0q0 0.1 0 0.1 0.1 0 0.1-0.1 0 0-0.1 0zm-1.7-0.3q-0.1 0-0.1 0.1 0 0 0.1 0 0.1 0 0.1 0 0-0.1-0.1-0.1zm1.4-0.2q0 0 0 0.1 0 0.1 0 0.1 0.1 0 0.1-0.1 0-0.1-0.1-0.1zm-1.4-0.1q-0.1 0-0.1 0.1 0 0 0.1 0 0.1 0 0.1 0 0-0.1-0.1-0.1zm2-0.4q0 0.1 0 0.1 0.1 0 0.1-0.1 0 0-0.1 0zm-1.3-0.3q-0.1 0-0.1 0 0 0.1 0.1 0.1 0.1 0 0.1-0.1 0 0-0.1 0zm1.7-0.2q0 0 0 0.1 0 0.1 0 0.1 0.1 0 0.1-0.1 0-0.1-0.1-0.1zm0.3-0.1q0 0.1 0 0.1 0.1 0 0.1-0.1 0 0-0.1 0zm-2.7-0.9q-0.1 0-0.1 0.1 0 0.1 0.1 0.1 0.1 0 0.1-0.1 0-0.1-0.1-0.1zm0.6 0q-0.1 0-0.1 0.1 0 0.1 0.1 0.1 0 0 0-0.1 0-0.1 0-0.1zm-0.9-0.5q0 0.1 0 0.1 0.1 0 0.1-0.1 0 0-0.1 0zm0.9-0.3q-0.1 0-0.1 0 0 0.1 0.1 0.1 0 0 0-0.1zm2.7-0.2q-0.1 0-0.1 0.1 0 0.1 0.1 0.1 0 0 0-0.1 0-0.1 0-0.1zm-2.3-0.1q-0.1 0-0.1 0 0 0.1 0.1 0.1 0 0 0-0.1zm2 0q0 0-0.1 0 0 0.1 0 0.1 0.1 0 0.1-0.1zm-2.1-0.2q-0.1 0-0.1 0.1 0 0.1 0.1 0.1 0 0 0-0.1 0-0.1 0-0.1zm-0.2-0.1q-0.1 0-0.1 0.1 0 0 0.1 0 0.1 0 0.1 0 0-0.1-0.1-0.1zm2.5 0q-0.1 0-0.1 0.1 0 0 0.1 0 0-0.1 0-0.1zm-3.4-0.2q0 0 0 0.1 0 0.1 0 0.1 0.1 0 0.1-0.1 0-0.1-0.1-0.1zm1.1-0.4q-0.1 0-0.1 0.1 0 0.1 0.1 0.1 0 0 0-0.1 0-0.1 0-0.1zm1.1 0q0 0 0 0.1 0 0.1 0 0.1 0.1 0 0.1-0.1 0-0.1-0.1-0.1zm-2.2-0.2l-0.1 0.1h0.1zm3.2-0.1v0.3l0.2-0.2zm-1.7 0.1q-0.1 0-0.1 0.1 0 0 0.1 0 0-0.1 0-0.1zm0.5 0q0 0 0 0.1 0.1 0 0.1 0 0-0.1-0.1-0.1zm-1.7-0.1q0 0.1 0 0.1 0 0 0-0.1zm-0.2-0.2q0 0 0 0.1 0 0.1 0 0.1 0.1 0 0.1-0.1 0-0.1-0.1-0.1zm1.2-0.2q-0.1 0-0.3 0.1-0.1 0.1-0.1 0.2h0.1q0.1 0 0.2 0 0.1-0.1 0.1-0.3zm1.6 0.2q-0.1 0-0.1 0.1 0 0.1 0.1 0.1 0 0 0-0.1 0-0.1 0-0.1zm0.3-0.1q-0.1 0-0.1 0.1 0 0 0.1 0 0-0.1 0-0.1zm-2.8-0.3q0 0 0 0.1 0.1 0 0.1 0 0-0.1-0.1-0.1zm2.3-0.1q0 0-0.1 0-0.1 0.1 0 0.2 0 0 0.1-0.1 0.1 0 0-0.1zm-2.7-0.3q0.1 0.1 0.1 0.2 0.1 0 0 0.1 0.2-0.1 0.2-0.2 0 0 0.1-0.2l0.2-0.2q0 0-0.1-0.1 0-0.1-0.1-0.1h-0.1q-0.1 0-0.2 0 0 0-0.1 0.1 0.1 0.1 0.1 0.1 0.1 0.1 0.2 0zm0.7 0.3q0 0.1 0 0.1 0.1 0 0.1-0.1 0 0-0.1 0zm0.8 0q-0.1 0-0.1 0 0 0.1 0.1 0.1 0 0 0-0.1zm1.5-0.2q0 0 0 0.1 0 0.1 0 0.1 0.1 0 0.1-0.1 0-0.1-0.1-0.1zm0.3 0q-0.1 0-0.1 0.1 0 0.1 0.1 0.1 0.1 0 0.1-0.1 0-0.1-0.1-0.1zm-3.4-0.1q-0.1 0-0.1 0.1 0 0 0.1 0 0-0.1 0-0.1zm0.8-0.6v0.1q0 0 0.1 0.1 0.1 0.1 0.2 0.2 0.1 0.1 0.2 0.2 0.1 0 0.1 0l0.2-0.1-0.2-0.1 0.3-0.2q0 0-0.1-0.1-0.2-0.2-0.2-0.2l-0.1 0.1v-0.3q-0.2 0-0.3 0.1-0.2 0-0.2 0.2zm1.9 0.2q-0.1 0-0.1 0 0 0.1 0.1 0.1 0 0 0-0.1zm-2.2-0.4q0.1 0-0.1 0-0.2 0-0.2 0 0.2 0.1 0.3 0zm1.3 0q-0.1 0-0.1 0 0 0 0.1 0zm1-0.3q0 0 0 0.1 0 0.1 0 0.1 0.1 0 0.1-0.1 0-0.1-0.1-0.1zm-2.8-0.1q-0.1 0-0.1 0.1 0 0.1 0.1 0.1 0 0 0-0.1 0-0.1 0-0.1zm0.7 0.1q0 0-0.1 0-0.1 0-0.1 0 0 0.1 0.1 0.1 0.1 0 0.1-0.1zm0.7-0.1v0.1h0.2zm-1.5-0.3q0 0 0 0.1 0 0.1 0 0.1 0.1 0 0.1-0.1 0-0.1-0.1-0.1zm0.5 0.1q-0.1 0-0.1 0.1 0 0.1 0.1 0.1 0 0 0-0.1 0-0.1 0-0.1zm0.2 0q0 0 0 0.1 0 0.1 0 0.1 0.1 0 0.1-0.1 0-0.1-0.1-0.1zm0.5-0.1q-0.1 0-0.1 0 0 0.1 0.1 0.1 0 0 0-0.1zm0.8-0.3q0 0.1 0.1 0.2 0 0.1 0.1 0.1 0.1 0 0.1-0.1 0 0 0-0.2-0.1-0.1-0.1-0.1-0.2 0-0.2 0.1zm0.6 0.2q0 0 0 0.1 0-0.1 0-0.1zm-1-0.1q-0.1 0-0.1 0.1 0 0.1 0.1 0.1 0.1 0 0.1-0.1 0-0.1-0.1-0.1zm-0.4-0.3q-0.1 0-0.1 0.1 0 0.1 0.1 0.1 0 0 0-0.1 0-0.1 0-0.1zm0.6 0q-0.1 0-0.1 0.1 0 0.1 0.1 0.1 0 0 0-0.1 0-0.1 0-0.1zm-2-0.1q-0.1 0-0.1 0.1 0 0 0.1 0 0-0.1 0-0.1zm2-0.1q-0.1 0-0.1 0 0 0.1 0.1 0.1 0 0 0-0.1zm0.5 0q0 0-0.1 0 0 0.1 0 0.1 0.1 0 0.1-0.1zm-2-0.2q0 0 0 0.1 0 0.1 0 0.1 0.1 0 0.1-0.1 0-0.1-0.1-0.1zm-0.1-0.1q-0.1 0-0.1 0 0 0.1 0.1 0.1 0 0 0-0.1zm0.1-0.3q0 0 0 0.1 0.1 0 0.1 0 0-0.1-0.1-0.1zm0.4-0.1q0 0-0.1 0 0 0.1 0 0.2 0 0 0.1-0.1 0.1 0 0-0.1zm1.6 0l-0.1 0.2h0.1zm-0.1-0.5v0.3l0.1-0.3zm-1.4-0.5q0 0 0 0.1 0 0.1 0 0.1 0 0 0-0.1 0-0.1 0-0.1zm1.6 0q-0.1 0-0.1 0.1 0 0.1 0.1 0.1 0 0 0-0.1 0-0.1 0-0.1zm0.1-0.4q0 0 0 0.1 0.1 0 0.1 0 0-0.1-0.1-0.1zm-0.1-0.2q-0.1 0-0.1 0.1 0 0.1 0.1 0.1 0 0 0-0.1 0-0.1 0-0.1zm-1.2-0.1q0 0 0 0.1 0.1 0 0.1 0 0-0.1-0.1-0.1zm-0.8-0.6q-0.1 0-0.1 0.1 0 0.1 0.1 0.1 0 0 0-0.1 0-0.1 0-0.1zm1-0.5q-0.1 0-0.1 0.1 0 0.1 0.1 0.1 0 0 0-0.1 0-0.1 0-0.1zm-0.6-1.5q0 0 0 0.1 0 0.1 0 0.1 0 0 0-0.1 0-0.1 0-0.1zm-1-0.4q-0.1 0-0.1 0.1 0 0 0.1 0 0.1 0 0.1 0 0-0.1-0.1-0.1zm11.5 17l-1.6-1.5-0.1-0.2q0 0-0.2-0.2 0-0.1-0.2-0.2-0.1-0.2-0.2-0.3-0.1-0.1-0.1-0.1-0.2-0.2-0.3-0.5 0-0.2-0.2-0.3 0-0.7-0.1-1.4-0.2-0.6-0.2-1.3 0-0.2 0.1-0.5 0.1-0.3 0.2-0.6 0 0 0.1-0.1 0-0.1 0.1-0.2 0-0.2 0-0.3 0.1-0.1 0.1-0.1 0.1-0.3 0.3-0.5 0.2-0.2 0.4-0.4 0.1-0.2 0.2-0.4 0.1-0.2 0.3-0.4v-0.1q0.2-0.1 0.3-0.4 0.1-0.2 0.3-0.4 0.3-0.2 0.4-0.3 0.3-0.1 0.4-0.1 0.2-0.1 0.4-0.1 0.3 0 0.6 0 0 0 0.2-0.1 0.1 0 0.2 0 0.2-0.1 0.6-0.1 0.4-0.1 0.6-0.1 0.2 0 0.3 0.1 0.1 0.1 0.3 0.1h0.6l0.1 0.1h0.3l0.1 0.1q0.1-0.1 0.2 0 0 0 0.1 0 0-0.1 0-0.2 0.1-0.1 0.3-0.1l0.3 0.1 0.3-0.1h0.1q0.1 0 0.1 0.1 0 0.2 0.1 0.2 0.1 0 0.1-0.1 0-0.1 0.2-0.1 0.1 0 0.6 0.2 0.5 0.3 1.1 0.6 0.5 0.4 1 0.7 0.5 0.3 0.5 0.4 0 0 0.1 0.2 0.1 0.2 0.1 0.2v0.2h0.1q0 0.1 0.1 0.2 0 0.1 0 0.2h0.1l0.3 0.6v0.2l0.2 0.1q0 0.1 0.1 0.2 0 0.1 0 0.2 0.1 0.1 0.1 0.4 0.1 0.2 0.1 0.3 0 0.1-0.1 0.3 0 0.2 0 0.4 0 0.2 0.1 0.3 0.1 0.2 0.2 0.2-0.1 0.1-0.1 0.1 0 0.1 0 0.1v0.1q0.1 0 0.1 0 0.1-0.1 0.2-0.1l0.1 0.1q-0.1 0-0.3 0.2-0.3 0.1-0.3 0.2 0 0 0 0.1-0.1 0.1-0.1 0.2l-0.1 0.3q0 0 0 0.1-0.1 0.1-0.1 0.2-0.1 0.2-0.2 0.3 0 0.1 0 0.1-0.1 0.2-0.2 0.4 0 0.2-0.2 0.4l-1.6 1.6q-0.1 0-0.1 0 0 0.1-0.1 0.2-0.3 0.2-0.6 0.4-0.3 0.2-0.6 0.2h-0.2q-0.4 0.1-0.7 0.2-0.3 0.2-0.7 0.2-0.4 0.2-0.9 0.2-0.4 0-0.8 0h-0.5q-0.1 0-0.3 0-0.1-0.1-0.3-0.1-0.2 0-0.4 0-0.2-0.1-0.2-0.1-0.4 0-0.9-0.2-0.4-0.3-0.7-0.5zm2.2-3.3l0.1 0.2q0.2 0.5 0.4 1 0.3 0.5 0.7 0.8l0.4 0.2 0.2 0.2h0.1q0.3 0 0.4 0 0.2-0.1 0.2-0.2 0.1-0.1 0.2-0.3 0-0.1 0.1-0.3 0.1-0.2 0.2-0.3 0.1-0.2 0.2-0.3v-0.2l0.1-0.2q0.3-0.7 0.3-1.6 0-0.9 0-1.6 0.1-0.1 0.1-0.2 0-0.3-0.2-0.6-0.1-0.3-0.1-0.6 0 0 0-0.1-0.1-0.1-0.1-0.3 0-0.1 0-0.2-0.1-0.2-0.1-0.2 0 0 0-0.1-0.1-0.1-0.1-0.2 0 0-0.1-0.1 0-0.1-0.1-0.2 0-0.1-0.1-0.2 0-0.1 0-0.1-0.2-0.2-0.2-0.3-0.1-0.1-0.3-0.1h-0.1-0.2q0 0-0.1 0.1-0.1 0-0.2 0-0.1 0-0.2 0-0.1 0-0.1 0-0.1 0-0.2 0 0 0.1-0.1 0.1-0.1 0.1-0.3 0.3-0.2 0.2-0.3 0.5-0.2 0.2-0.3 0.5 0 0.2 0 0.4v1.2q-0.1 0.5-0.2 1 0 0.5 0 1 0 0.2 0 0.4 0.1 0.1 0.1 0.3v0.1zm5.7 0.8q0 0.2 0.2 0.2 0.1 0.1 0.3 0.1 0-0.1-0.1-0.2-0.1-0.2-0.2-0.2h-0.1zm3.2-2.1h0.1v0.1h-0.1zm0.2-0.1q0.1 0 0.1 0 0 0.1-0.1 0.1 0 0 0-0.1zm-1-1.8v0.1zm-3.7-4.2q0 0 0 0.1 0.1 0 0.1 0 0-0.1-0.1-0.1zm-6.6 7.6q-0.1 0-0.1 0.1 0 0.1 0.1 0.1 0 0 0-0.1 0-0.1 0-0.1zm-0.2-0.2q0 0 0 0.1 0 0.1 0 0.1 0.1 0 0.1-0.1 0-0.1-0.1-0.1zm1.8-0.4q-0.1 0-0.1 0.1 0 0 0.1 0 0-0.1 0-0.1zm-0.3-0.4q-0.1 0-0.1 0 0 0.1 0.1 0.1 0 0 0-0.1zm-1.5-0.3q0 0 0 0.1 0 0.1 0 0.1 0.1 0 0.1-0.1 0-0.1-0.1-0.1zm0.3 0.1q0 0 0 0.1 0 0.1 0 0.1 0.1 0 0.1-0.1 0-0.1-0.1-0.1zm0-0.3q0 0 0 0.1 0 0.1 0 0.1 0.1 0 0.1-0.1 0-0.1-0.1-0.1zm-0.1-0.1q-0.1 0-0.1 0.1 0 0 0.1 0 0-0.1 0-0.1zm1.3-0.7q0 0.1-0.1 0.3-0.1 0.3-0.1 0.3v0.2h0.2zm-0.9 0.5q0 0-0.1 0 0 0.1 0 0.1 0.1 0 0.1-0.1zm-0.1-0.3q-0.1 0-0.1 0.1-0.1 0-0.1 0.1 0.1 0 0.1 0 0.1-0.1 0.1-0.2zm0.7 0.1q-0.1 0-0.1 0.1 0 0.1 0.1 0.1 0 0 0-0.1 0-0.1 0-0.1zm0-0.2q0-0.1-0.1-0.1-0.1 0-0.1 0.1 0 0 0.1 0 0.1 0 0.1 0zm-0.2-0.5q0 0 0 0.1 0.1 0 0.1 0 0-0.1-0.1-0.1zm-0.3-0.1q0 0.1 0 0.1 0.1 0 0.1-0.1 0 0-0.1 0zm0.3-0.6q0 0-0.2 0.1-0.2 0.1-0.2 0.3v0.1zm-1.6 0.2q0 0 0 0.1 0.1 0 0.1 0 0-0.1-0.1-0.1zm2-0.2q-0.3 0-0.3 0.3h0.2q0.1 0 0.2 0 0-0.1 0.1-0.2-0.1-0.1-0.1-0.1-0.1 0-0.1 0zm-1.2-0.1q-0.1 0-0.1 0.1 0 0.1 0.1 0.1 0 0 0-0.1 0-0.1 0-0.1zm1.7 0q-0.1 0-0.1 0.1 0 0.1 0.1 0.1 0 0 0-0.1 0-0.1 0-0.1zm-1.5-0.2q0 0 0 0.1 0.1 0 0.1 0 0-0.1-0.1-0.1zm-0.1-0.2q0 0 0 0.1 0-0.1 0-0.1zm0.6-0.2q0 0.1 0.1 0.2 0.2 0 0.3 0 0.1 0 0.1 0 0-0.1 0-0.2 0-0.1-0.1-0.3-0.1-0.1 0-0.3-0.1 0.1-0.3 0.3-0.1 0.2-0.1 0.3zm1 0.2q-0.1 0-0.1 0.1 0 0 0.1 0 0-0.1 0-0.1zm-1.9-0.2q0 0.1 0 0.1 0 0 0-0.1zm0.6 0q-0.1 0-0.1 0.1 0 0.1 0.1 0.1 0 0 0-0.1 0-0.1 0-0.1zm0.1-0.2q0 0.1 0 0.1 0.1 0 0.1-0.1 0 0-0.1 0zm1-0.2q0 0 0 0.1 0 0.1 0 0.1 0.1 0 0.1-0.1 0-0.1-0.1-0.1zm-2.3-0.1q0 0.1 0 0.1 0.1 0 0.1-0.1 0 0-0.1 0zm1.3 0q0 0.1 0 0.1 0.1 0 0.1-0.1 0 0-0.1 0zm1.2-0.3q-0.1 0-0.1 0.1 0 0 0.1 0 0-0.1 0-0.1zm-0.8-0.5q0 0 0 0.1 0 0.1 0 0.1 0.1 0 0.1-0.1 0-0.1-0.1-0.1zm-0.1-0.1q0 0 0 0.1 0.1 0 0.1 0 0-0.1-0.1-0.1zm0.6 0q-0.1 0-0.1 0.1 0 0 0.1 0 0-0.1 0-0.1zm0.3 0q-0.1 0-0.1 0.1 0 0 0.1 0 0-0.1 0-0.1zm0-0.4q-0.1 0-0.2 0.1 0 0 0 0.1 0.1 0.1 0.1 0 0.1-0.1 0.1-0.2zm13 7.5q0-0.6 0.1-1.3 0.1-0.7 0.1-1.4 0-0.5-0.1-0.8 0-0.4-0.1-0.8 0-0.1 0-0.2 0-0.1 0-0.3 0-0.2 0-0.3 0-0.2 0-0.3 0-0.3-0.1-0.6 0-0.2-0.1-0.6 0-0.2 0-0.4-0.1-0.1-0.1-0.3h-0.1q-0.1-0.1-0.2-0.1-0.1-0.1-0.3-0.1h-0.5q-0.1 0-0.3 0-0.2 0-0.4 0-0.3 0-0.5 0l-0.3-0.1q0 0 0-0.1 0-0.1 0-0.1 0-0.3 0-0.3 0.1-0.1 0.3-0.3 0.5-0.1 0.9-0.3 0.5-0.2 0.9-0.5 0.4-0.2 0.8-0.5 0.3-0.2 0.5-0.5 0.5-0.4 0.7-0.7 0.3-0.3 0.5-0.5 0.2-0.2 0.4-0.5 0.2-0.3 0.6-0.8 0.1 0 0.4-0.1 0.3-0.1 0.3-0.1 0.1 0 0.3 0 0.3-0.1 0.6-0.1 0.2 0 0.5-0.1 0.2 0 0.3 0v3.7q0 0.1 0.1 0.3 0 0.1 0.2 0.1h0.9q0.6 0 1.3 0 0.7-0.2 1.5-0.2 0.1 0 0.1 0.2 0.1 0.1 0.1 0.3 0 0.2 0 0.3 0 0.2 0 0.3v0.3l-0.1 0.1h-2.5q0 0-0.2 0-0.2 0-0.4 0.1-0.2 0-0.4 0-0.2 0-0.3 0-0.2 0.1-0.3 0.3v0.9 0.2 0.1q0 0.5 0 0.9 0.1 0.5 0.1 0.9v0.7q0 0-0.1 0.2-0.1 0.2-0.1 0.3v0.9l-0.1 0.2v0.1q0 0 0.1 0.1 0.1 0.1 0.1 0.1v0.9q0 0 0.1 0.1 0.1 0.1 0.3 0.3 0.1 0.1 0.3 0.2 0.2 0.1 0.3 0.1 0.1 0 0.4-0.2 0.3-0.1 0.4-0.2 0.3-0.1 0.5-0.2 0.2-0.1 0.3-0.4l0.1-0.3q0-0.1 0-0.2 0.1-0.2 0.1-0.3 0-0.2 0.1-0.4 0-0.1 0.1-0.2 0.2-0.2 0.5-0.1 0.2 0.1 0.5 0.1v0.8q0 0.5-0.2 0.8-0.2 0.4-0.4 0.8-0.1 0.1-0.2 0.4-0.1 0.2-0.2 0.4-0.7 0.8-1.5 1.2-0.9 0.4-2 0.4h-1.5q-0.4-0.2-1-0.4-0.5-0.2-0.9-0.5-0.2 0-0.4-0.1-0.2-0.1-0.3-0.2-0.2-0.2-0.4-0.5-0.1-0.3-0.1-0.6zm3.1-4q0.2 0 0.2-0.1zm-1.8 2.1q0 0 0 0.1 0.1 0 0.1 0 0-0.1-0.1-0.1zm-0.1-0.7q-0.1 0-0.1 0 0 0.1 0.1 0.1 0.1 0 0.1-0.1 0 0-0.1 0zm0.3-0.2q-0.1 0-0.1 0.1 0 0.1 0.1 0.1 0 0 0-0.1 0-0.1 0-0.1zm-0.5 0q0-0.1 0-0.1-0.1 0-0.1 0.1 0 0 0.1 0zm0.3-0.3q0 0 0 0.1 0 0.1 0 0.1 0.1 0 0.1-0.1 0-0.1-0.1-0.1zm0.1-0.3q-0.1 0-0.1 0.1-0.1 0-0.1 0.2l0.3-0.3zm0.8 0.2q-0.1 0-0.1 0.1 0 0 0.1 0 0-0.1 0-0.1zm-0.6-0.2q-0.1 0-0.1 0.1 0 0.1 0.1 0.1 0 0 0-0.1 0-0.1 0-0.1zm0.4-0.3q0 0 0 0.1 0.1 0 0.1 0 0-0.1-0.1-0.1zm-1.1-0.4q-0.1 0-0.1 0.1 0 0.1 0.1 0.1 0 0 0-0.1 0-0.1 0-0.1zm1 0l0.1 0.1v-0.1zm0.4-0.3q0 0 0.1 0.1 0.1 0.2 0.1 0.2l0.3-0.2q0-0.1-0.1-0.2 0-0.1-0.1-0.1-0.1 0-0.2 0-0.1 0-0.1 0.2zm-1.8-0.3q0 0.1 0 0.2 0.1 0.1 0.1 0.2h-0.1q0.2-0.2 0.3-0.2 0.3 0 0.5 0 0-0.2-0.2-0.4-0.1-0.2-0.3-0.2-0.1 0-0.2 0 0 0.1 0 0.2 0 0 0.1 0.1 0 0.1 0 0.1zm1.5 0.1q-0.1 0-0.1 0 0 0.1 0.1 0.1 0 0 0-0.1zm0.8-0.3q0 0 0 0.1 0.1 0 0.1 0 0-0.1-0.1-0.1zm-1.7-0.8v0.4q0.1 0 0.1-0.1 0 0 0-0.1 0-0.1 0-0.1 0-0.1-0.1-0.1zm0-0.7q0-0.1-0.1-0.1-0.1 0-0.1 0.1 0 0 0.1 0 0.1 0 0.1 0zm-0.6-0.6v0.1h0.3zm1.5-0.1l-0.2 0.3q0.1-0.1 0.1-0.1 0.1-0.1 0.1-0.1zm-0.6 0q-0.1 0-0.1 0 0 0.1 0.1 0.1 0 0 0-0.1zm0.3 0q-0.1 0-0.1 0 0 0.1 0.1 0.1 0 0 0-0.1zm0.8 0q0 0 0 0.1 0 0.1 0 0.1 0.1 0 0.1-0.1 0-0.1-0.1-0.1zm-1.8-0.6q0.1 0 0.1 0.3 0.1 0.2 0.1 0.3 0.1 0 0.2-0.2 0.1-0.2 0.1-0.3-0.1-0.1-0.2-0.1-0.1 0-0.2 0zm-0.2 0q-0.1 0-0.2 0.1 0 0 0 0.2v0.1q0-0.1 0.1-0.2 0-0.2 0.1-0.2zm-0.2-0.6q-0.1 0.1-0.1 0.1 0 0.1 0 0.2h0.1zm0.5 0.1q-0.1 0-0.2 0 0 0.1 0 0.2 0.1 0 0.1 0 0.1-0.1 0.1-0.2zm0.2 0q0 0 0 0.1 0 0.1 0 0.1 0.1 0 0.1-0.1 0-0.1-0.1-0.1zm-0.4-0.5q0 0 0 0.1 0 0.1 0 0.1 0.1 0 0.1-0.1 0-0.1-0.1-0.1zm-0.7-0.1q0 0.1 0 0.1 0 0 0-0.1zm27.3-2.6q0 0.2-0.2 0.5-0.2 0.3-0.4 0.4-0.1 0.1-0.4 0.2-0.2 0-0.3 0l0.2-1.1q-0.1 0-0.1 0.2-0.1 0.1-0.1 0.3-0.1 0.1-0.1 0.3 0 0.1-0.1 0.1-0.2 0.1-0.6 0.2-0.5 0.1-0.7 0l-0.5-0.6v-0.2l-0.2-0.2v-0.2l-0.2-0.1v-0.2l-0.1-0.1v-0.1q0.2-0.2 0.2-0.6 0-0.4 0.1-0.6 0-0.1 0.2 0.1 0.1 0.1 0.2 0.1l-0.3-0.4q-0.1 0-0.2 0-0.2 0.1-0.2 0.1l-0.1-0.2-0.2-0.2q0.1-0.5 0.2-0.9 0.1-0.3 0.1-0.5 0.1-0.3 0-0.3 0.3-0.6 0.8-1.2 0.5-0.4 1.2-0.9 0.8-0.4 2-0.6l0.5 0.2 0.1 0.8q0 0.1-0.2 0.1-0.3 0-0.6 0-0.3 0-0.6 0.1-0.4 0-0.8 0.3-0.3 0.2-0.6 0.7-0.2 0.5-0.3 1.3 0.2 0.2 0.5 0.3 0.3 0 0.6 0.1 0 0 0 0.3-0.1 0.2-0.2 0.4 0 0.1 0.1 0.1 0.1 0 0.6-0.6 0.3 0.2 0.4 0.6 0.2 0.3 0.3 0.7 0.1 0.3 0.1 0.7 0 0.4-0.1 0.6zm-3.7-1.6q-0.1 0 0-0.1 0-0.1 0-0.1 0.1 0.1 0 0.1 0 0.1 0 0.1zm-0.4-0.1q-0.1 0-0.1-0.1 0.1-0.1 0.1-0.1 0.1 0 0.1 0.1-0.1 0.1-0.1 0.1zm0.8 1.9q0.1 0 0.1-0.1 0 0 0-0.1-0.1 0-0.1 0.1 0 0.1 0 0.1zm3.1-6.5q0.1 0 0.1 0 0.1-0.1 0-0.2-0.1 0-0.1 0.1-0.1 0.1 0 0.1zm0.5 0.3q0 0.1 0 0 0.1-0.1 0-0.1-0.1-0.1-0.1 0 0 0.1 0.1 0.1zm-3.2 5.9v-0.2h-0.1l-0.1 0.1zm1.4 0.5q0.1 0 0.1 0 0-0.1-0.1-0.1 0-0.1 0 0 0 0.1 0 0.1zm-1.8-0.5q0.1 0 0.1-0.1 0 0 0-0.1-0.1 0-0.1 0.1 0 0 0 0.1zm0.6 0.7v-0.2l-0.2 0.1zm0.5 0.2q0.1 0 0.1 0 0-0.1 0-0.1-0.1 0-0.1 0.1zm0.1 0.2q0.1 0.1 0.1 0 0-0.1 0-0.1-0.1-0.1-0.1 0 0 0.1 0 0.1zm-0.6-1.4q0.1 0 0.1 0 0-0.1-0.1-0.1 0 0 0 0.1zm0.6 0.5q0 0-0.1 0-0.1 0-0.1 0 0 0.1 0.1 0.1 0.1 0 0.1-0.1zm-1.2-2.1h-0.1zm0 1.6q0-0.1 0-0.1-0.1 0-0.1 0.1 0 0 0.1 0zm0.1-2.3q0 0-0.1 0 0 0.1 0 0.1 0.1 0 0.1-0.1zm0 0.3h-0.1zm0 0.4q0 0-0.1 0 0 0.1 0 0.1 0.1 0 0.1-0.1zm0.1-0.8q0 0.1 0 0.1 0 0 0-0.1zm0.2 0.6l-0.2 0.1h0.2zm0.3-0.4q0-0.1-0.1-0.1 0 0 0 0.1 0.1 0 0.1 0zm0.3 0l-0.1 0.1v0.3h0.1q0-0.1 0-0.2 0.1-0.1 0.1-0.1zm0.5 1.8q0 0-0.1 0-0.1 0-0.1 0 0 0.1 0.1 0.1 0.1 0 0.1-0.1zm0.1-1q0 0-0.1 0.1-0.2 0.1-0.1 0.1 0 0 0.2-0.1 0.1-0.1 0-0.1zm-0.2-0.7q0-0.1-0.1-0.1 0 0 0 0.1 0 0.1 0 0.1 0.1 0 0.1-0.1zm0.4 1.1q0.1 0 0.1 0 0-0.1-0.1-0.1 0 0 0 0.1zm0.1 0.4q0-0.1-0.1-0.1-0.1 0-0.1 0.1 0 0 0.1 0 0.1 0 0.1 0zm0 0.3q0-0.1-0.1-0.1-0.1 0-0.1 0.1 0 0 0.1 0 0.1 0 0.1 0zm0.1-0.9q0 0-0.1 0-0.1 0-0.1 0 0 0.1 0.1 0.1 0.1 0 0.1-0.1zm0 0.3q0-0.1-0.1-0.1 0 0 0 0.1 0.1 0 0.1 0zm0.1 0.6h-0.1l0.1 0.1zm0.2-0.1q0-0.1-0.1-0.1-0.1 0-0.1 0.1 0 0 0.1 0 0.1 0 0.1 0zm-0.4-1.6q0 0-0.1 0 0 0.1 0 0.1 0.1 0 0.1-0.1zm0.8 1.3q0-0.1-0.2-0.1-0.1-0.1-0.2-0.1 0.1 0.2 0.4 0.2zm-0.3 0.2q0-0.1-0.1-0.1l0.1 0.2zm-0.1 0.1v0.1zm0.3 0.1h0.1l-0.1-0.1zm0.1 0.3q0-0.1-0.1-0.1-0.1 0-0.1 0.1 0 0 0.1 0 0.1 0 0.1 0zm0.1-1.2q-0.1 0-0.1 0 0 0.1 0.1 0.1 0 0 0-0.1zm0 0.7q0-0.1-0.1-0.1 0 0 0 0.1 0 0.1 0 0.1 0.1 0 0.1-0.1zm6.9 14.7q-0.4 0-0.7 0-0.4 0-0.7 0-0.2 0-0.6-0.1-0.3 0-0.7 0-0.2-0.1-0.3-0.4 0-0.3 0-0.6v-0.5q0-0.1 0.1-0.1 0.1 0 0.1 0 0.3 0 0.4 0 0.2 0 0.3 0.1 0.1 0 0.2 0 0.2 0 0.4 0h0.5q0.1-0.1 0.2-0.3 0.1-0.1 0.1-0.2v-0.2q0 0-0.1-0.2 0-0.1 0-0.2 0 0 0-0.1 0-0.2 0-0.3 0.1-0.2 0.1-0.3 0-0.2 0-0.2v-0.5-0.5q0 0 0-0.1 0-0.1-0.1-0.3 0-0.1 0-0.2 0-0.1 0-0.2v-2.7q0-0.7-0.1-1.5 0-0.8 0-1.5 0-0.1 0-0.2 0 0 0-0.1v-0.1q0-0.1 0-0.3 0-0.2 0-0.3v-1.7q-0.1-0.4-0.1-0.6 0.1-0.3 0-0.6 0-0.6-0.1-1.1-0.1-0.5-0.2-1 0-0.1-0.1-0.1h-0.1q-0.5 0-0.9 0.1-0.5 0-1 0 0-0.3 0-0.8 0-0.5 0.1-0.8 0-0.1 0.1-0.2 0.2 0 0.3 0 0.5-0.1 1-0.1 0.5 0 1 0.1 0.5 0 1 0 0.5 0 1.1 0 0.4 0 0.8 0 0.5 0 0.9-0.1h1.9q0.3 0.4 0.6 0.7 0.4 0.3 0.7 0.7l0.1 0.1 0.1 0.2q0 0.1 0.2 0.3 0.2 0.2 0.3 0.3 0.2 0.2 0.3 0.4 0.1 0.2 0.3 0.4 0 0 0.1 0.1 0.1 0.1 0.2 0.3 0.1 0.1 0.2 0.2 0.1 0.1 0.1 0.1l0.1 0.3q0 0.1 0.1 0.2 0 0.1 0.1 0.1 0.1 0.3 0.3 0.6 0.2 0.2 0.4 0.5v0.2q0.1 0.2 0.2 0.3 0.1 0.2 0.2 0.3 0.3 0.4 0.7 0.8 0.4 0.4 0.6 0.8 0.1 0.1 0.2 0.2 0 0.1 0.2 0.1 0.1 0 0.1-0.1v-1.7l0.1-0.2v-0.8-0.1-0.4q0-0.1 0-0.2 0-0.1 0-0.2 0-0.1 0-0.2 0-0.1 0-0.3l-0.1-0.2v-0.1q0.1-0.1 0.1-0.2 0-0.2-0.1-0.5 0-0.2-0.1-0.5 0 0 0-0.1 0-0.1 0-0.2 0-0.1 0-0.2 0-0.1 0-0.1 0-0.1-0.1-0.3 0-0.2 0-0.2 0-0.1-0.1-0.1-0.1-0.1-0.3-0.1-0.1-0.1-0.2-0.1-0.1-0.1-0.2-0.1 0 0-0.2 0-0.1 0-0.3 0.1-0.2 0-0.3 0-0.2 0-0.2 0l-0.1-0.1q-0.1-0.3-0.1-0.8 0-0.4 0-0.8h0.5q0 0 0.2 0 0.1 0 0.2 0.1 0.2 0 0.3 0 0.1 0 0.2 0h1.4q0.1 0 0.2 0 0.1 0.1 0.2 0.1h0.3q0.1 0 0.3-0.1 0.2 0 0.4 0 0.2 0.1 0.4 0 0.1 0 0.3 0 0.2-0.1 0.3-0.1 0.2 0 0.4 0.1 0 0.1 0 0.3 0 0.2 0.1 0.4 0 0.2 0 0.4 0 0.2 0 0.3 0 0.1-0.2 0.2-0.2 0-0.3 0h-0.2q0 0-0.1 0-0.2 0-0.3 0-0.1-0.1-0.2-0.1-0.1 0-0.2 0-0.2 0-0.3 0.1-0.2 0-0.3 0.2 0 0.1 0.1 0.3 0 0.2 0 0.4 0.1 0.2 0.1 0.4 0 0.2 0 0.3 0.1 0.5 0.1 0.9 0 0.5 0.1 0.9v0.2 1.4q0.2 0.1 0.1 0.4 0 0.2 0 0.4 0 0.1 0.1 0.3 0 0.2 0 0.3 0.2 1.4 0.3 2.8 0.1 1.3 0.2 2.8 0 0.3 0.1 0.5 0.1 0.2 0.1 0.5 0.1 0 0.1 0.1 0 0.2-0.1 0.2-0.1 0.5-0.1 1 0 0.5 0 1 0 0.5 0 1 0 0.5-0.1 0.9v0.2q-0.4 0-0.8 0.1-0.4 0-0.7 0-0.1 0-0.2 0.1 0 0.1-0.1 0.1h-0.1q-0.4-0.1-0.7-0.1-0.4 0-0.6-0.3 0 0-0.2-0.2-0.1-0.1-0.2-0.2-0.1-0.1-0.2-0.3-0.1-0.1-0.1-0.1 0-0.2-0.1-0.4-0.1-0.2-0.3-0.4-0.1-0.2-0.3-0.4-0.2-0.2-0.3-0.3-0.8-1.1-1.6-2.2-0.7-1.2-1.5-2.3-0.1-0.3-0.4-0.5-0.2-0.3-0.3-0.5-0.6-0.8-1-1.5-0.5-0.8-1.1-1.5-0.3-0.4-0.6-0.8-0.4-0.3-0.6-0.8 0 0-0.1-0.2-0.1-0.2-0.2-0.3-0.1-0.2-0.2-0.3-0.1-0.2-0.1-0.2-0.2 0-0.2 0.1-0.1 0.1-0.1 0.2v1.5q0 0.1 0 0.2 0 0.2 0 0.4 0 0.2 0 0.3 0 0.2 0 0.2 0 0.1 0 0.4 0 0.2 0 0.2 0 0.1 0.1 0.2 0.1 0.1 0.1 0.2v0.1q0 0.2 0 0.3 0 0.1-0.1 0.3v1.1l-0.1 0.3v0.1 0.1q0.2 1 0.2 2.1 0 1 0 2 0 0.1 0 0.2 0 0.2 0 0.2 0.1 0.1 0.1 0.3 0 0.2 0 0.4 0 0.2 0.1 0.4 0 0.2 0.1 0.2 0.1 0 0.4 0.1 0.4 0 0.8 0 0.4 0 0.7 0 0.4 0 0.4 0 0.1 0 0.2 0 0.2 0 0.3 0.1 0.2 0 0.3 0.1 0.2 0 0.3 0 0.1 0 0.2 0.2 0.1 0.2 0.1 0.5 0.1 0.2 0.1 0.4 0 0.3 0 0.4 0 0.1-0.1 0.1-0.2 0.1-0.5 0.1-0.2 0-0.5 0.1h-3.7q0 0-0.1 0-0.2-0.1-0.2-0.1zm0.8-8.6q0 0.1 0 0.1 0.1 0 0.1-0.1 0 0-0.1 0zm7.2-4.4q-0.1 0-0.1 0.1 0 0.1 0.1 0.1 0 0 0-0.1 0-0.1 0-0.1zm-1.4-0.5q0 0 0 0.1 0 0.1 0 0.1 0.1 0 0.1-0.1 0-0.1-0.1-0.1zm-4-0.8q0 0 0 0.1 0 0.1 0 0.1 0.1 0 0.1-0.1 0-0.1-0.1-0.1zm1.9-0.5q-0.1 0-0.1 0.1 0 0 0.1 0 0-0.1 0-0.1zm6.7 5.2q-0.1 0-0.1 0.1 0 0.1 0.1 0.1 0 0 0-0.1 0-0.1 0-0.1zm1.4 7.6q0 0 0 0.1 0.1 0 0.1 0 0-0.1-0.1-0.1zm-0.9-7.7q0 0.1 0 0.1 0.1 0 0.1-0.1 0 0-0.1 0zm-0.4-0.2q0 0 0 0.1 0 0.1 0 0.1 0.1 0 0.1-0.1 0-0.1-0.1-0.1zm0.3 0q0 0 0 0.1 0 0.1 0 0.1 0.1 0 0.1-0.1 0-0.1-0.1-0.1zm0.8 6.8l-0.5 0.5h0.1q0.4 0 0.4-0.4zm-1.2 0.6q-0.1 0-0.1 0.1 0 0 0.1 0 0-0.1 0-0.1zm-1-0.3q-0.1 0-0.1 0.1 0 0.1 0.1 0.1 0.1 0 0.1-0.1 0-0.1-0.1-0.1zm0.3 0q-0.1 0-0.1 0.1 0 0.1 0.1 0.1 0 0 0-0.1 0-0.1 0-0.1zm0.4-0.1q0 0 0 0.1 0 0.1 0 0.1 0.1 0 0.1-0.1 0-0.1-0.1-0.1zm0.6-0.5q-0.1 0-0.1 0.1 0 0.1 0.1 0.1 0 0 0-0.1 0-0.1 0-0.1zm0.3-0.2l0.1 0.2v-0.2zm-0.6-0.1l-0.1 0.1h0.1zm1.3 0.1q0 0 0 0.1 0.1 0 0.1 0 0-0.1-0.1-0.1zm-1.4-0.5q-0.1-0.1-0.1 0-0.1 0.1 0 0.1 0 0.1 0.1 0 0-0.1 0-0.1zm1.3 0q-0.1 0-0.1 0.1 0 0.1 0.1 0.1 0 0 0-0.1 0-0.1 0-0.1zm-1.7-0.2v0.2q0.1 0 0.2-0.1 0.1-0.2 0.2-0.2-0.1 0-0.2 0.1-0.1 0-0.2 0zm1.4-0.2q-0.1 0-0.1 0.1 0 0.1 0.1 0.1 0.1 0 0.1-0.1 0-0.1-0.1-0.1zm-0.3-0.1q0 0 0 0.1 0.1 0 0.1 0 0-0.1-0.1-0.1zm0.6 0q-0.1 0-0.1 0.1 0 0 0.1 0 0-0.1 0-0.1zm-1.2-0.4l0.3 0.2v-0.2zm0.6-0.2q0 0 0 0.1 0 0.1 0 0.1 0.1 0 0.1-0.1 0-0.1-0.1-0.1zm0.4 0q0 0 0 0.1 0 0.1 0 0.1 0.1 0 0.1-0.1 0-0.1-0.1-0.1zm-1.2-0.8q0 0.3-0.2 0.4-0.2 0.1-0.2 0.3 0.1 0 0.2 0 0.1 0 0.2-0.1l0.1 0.1 0.7-0.1-0.6-0.3q0.1 0 0.2 0 0.2-0.1 0.3-0.1v-0.1q0-0.1-0.1-0.2 0 0-0.1-0.2 0 0.1-0.2 0.2-0.2 0.1-0.2 0.1zm1.9 0.5q0 0 0 0.1 0 0.1 0 0.1 0.1 0 0.1-0.1 0-0.1-0.1-0.1zm-0.3-0.1q0 0.1 0 0.1 0.1 0 0.1-0.1 0 0-0.1 0zm-0.5-0.5q-0.1 0-0.1 0.1 0 0.1 0.1 0.1 0 0 0-0.1 0-0.1 0-0.1zm-1.3-0.1q-0.1 0-0.1 0.1 0 0 0.1 0 0-0.1 0-0.1zm1.1 0q0 0 0 0.1 0.1 0 0.1 0 0-0.1-0.1-0.1zm0.5 0q-0.1 0-0.1 0.1 0 0 0.1 0 0-0.1 0-0.1zm-0.6-0.1q-0.1 0-0.1 0 0 0.1 0.1 0.1 0 0 0-0.1zm0.8 0q0 0.1 0 0.1 0.1 0 0.1-0.1 0 0-0.1 0zm-2.4-0.3v0.2h0.2zm1.1-0.1q0 0 0 0.1 0-0.1 0-0.1zm1.2 0q-0.1 0-0.1 0.1 0 0 0.1 0 0-0.1 0-0.1zm-1.9-0.1q-0.1 0-0.1 0 0 0.1 0.1 0.1 0 0 0-0.1zm0.6-0.2q-0.1 0-0.1 0.1 0 0.1 0.1 0.1 0 0 0-0.1 0-0.1 0-0.1zm0.3-0.1q-0.1 0-0.1 0.1 0 0.1 0.1 0.1 0 0 0-0.1 0-0.1 0-0.1zm0.2 0q0 0 0 0.1 0 0.1 0 0.1 0.1 0 0.1-0.1 0-0.1-0.1-0.1zm0.6 0.1q0 0 0 0.1 0 0.1 0 0.1 0.1 0 0.1-0.1 0-0.1-0.1-0.1zm-1.4-0.1q-0.1 0-0.1 0.1 0 0 0.1 0 0-0.1 0-0.1zm1.8 0q0 0 0 0.1 0.1 0 0.1 0 0-0.1-0.1-0.1zm-1.1-0.2q0-0.1-0.2-0.1-0.1 0-0.1 0.1 0 0 0.1 0 0.2 0 0.2 0zm-0.6-0.5q0 0.1 0 0.1 0.1 0 0.1-0.1 0 0-0.1 0zm1.3 0q0 0.1 0 0.1 0.1 0 0.1-0.1 0 0-0.1 0zm-2.3-0.2q0 0 0 0.1 0 0.1 0 0.1 0.1 0 0.1-0.1 0-0.1-0.1-0.1zm1.3-0.2q0 0 0 0.1 0 0.2 0 0.2 0.1-0.2 0-0.3zm0.6 0.2q-0.1 0-0.1 0.1 0 0.1 0.1 0.1 0 0 0-0.1 0-0.1 0-0.1zm-1.2-0.1q-0.1 0-0.1 0 0 0.1 0.1 0.1 0 0 0-0.1zm1-0.2q0-0.1-0.1 0 0 0.1 0 0.1 0 0.1 0.1 0 0.1-0.1 0-0.1zm-1.7-0.3q0 0 0 0.1 0 0.1 0 0.1 0.1 0 0.1-0.1 0-0.1-0.1-0.1zm1.6-0.2l-0.1 0.2h0.1zm1-1.5q0 0-0.1 0 0.1 0 0.1 0zm4.9-8.2q0-0.2 0.2-0.5 0.2-0.3 0.4-0.4 0.1 0 0.1-0.1-0.1 0-0.1 0 0-0.1 0.1-0.1l0.2 0.1q0.1 0 0.3 0.1 0.2 0 0.3 0 0.2-0.1 0.6-0.1 0.5-0.1 0.7-0.1l0.5 0.6v0.2l0.3 0.2v0.3h0.1v0.2l0.2 0.1-0.1 0.1q-0.2 0.2-0.2 0.6 0 0.4-0.1 0.6 0 0.1-0.1 0 0 0-0.1-0.1 0 0-0.1-0.1-0.1 0-0.1 0l0.3 0.4q0.1 0 0.2 0 0.1-0.1 0.1-0.1 0.1 0 0.1 0l0.1 0.2 0.2 0.3-0.2 0.8q0 0.3-0.1 0.6 0 0.2 0 0.2-0.1 0.6-0.5 1.2-0.3 0.4-0.9 0.9-0.7 0.4-1.9 0.6l-0.5-0.2-0.1-0.8q0-0.1 0.2-0.1 0.1 0 0.4 0 0.2 0 0.5-0.1 0.3 0 0.5-0.3 0.3-0.2 0.5-0.7 0.2-0.5 0.3-1.2-0.2-0.2-0.5-0.3-0.2-0.1-0.6-0.2-0.1 0-0.4-0.1-0.2-0.1-0.4-0.2-0.3-0.2-0.4-0.5-0.1-0.4-0.1-0.7-0.1-0.4-0.1-0.7 0.1-0.4 0.2-0.6zm3.7 1.6q0.1 0 0.1 0.1-0.1 0.1-0.1 0.1-0.1-0.1 0-0.1 0-0.1 0-0.1zm0.5 0.1q0 0.1 0 0.1 0 0.1-0.1 0.1-0.1 0 0-0.1 0-0.1 0.1-0.1zm-0.9-1.9q-0.1 0-0.1 0.1 0 0 0 0.1 0.1 0 0.1-0.1 0 0 0-0.1zm-2.4 6.5q-0.1 0-0.1 0.1-0.1 0.1 0 0.1 0.1 0 0.1-0.1 0.1-0.1 0-0.1zm-0.5-0.3q0-0.1-0.1 0 0 0.1 0.1 0.2 0.1 0 0.1-0.1 0-0.1-0.1-0.1zm2.5-5.8v0.1h0.1l0.1-0.1zm-1.4-0.5q-0.1 0-0.1 0.1 0 0 0.1 0.1 0 0 0-0.1 0.1-0.1 0-0.1zm1.8 0.5q-0.1 0-0.1 0.1 0 0.1 0 0.1 0.1 0 0.1 0 0.1-0.1 0-0.2zm-0.5-0.6l-0.1 0.1 0.2-0.1zm-0.5-0.2q-0.1 0-0.1 0 0 0.1 0 0.1 0.1 0 0.1 0 0-0.1 0-0.1zm-0.1-0.2q-0.1 0-0.1 0.1 0.1 0.1 0.1 0 0-0.1 0-0.1zm0.6 1.4q-0.1 0-0.1 0.1 0 0 0.1 0 0-0.1 0-0.1zm-0.6-0.5q0 0 0.1 0 0.1 0 0.1 0 0-0.1-0.1-0.1-0.1 0-0.1 0.1zm1.2 0.6q0 0 0.1 0 0-0.1 0-0.1-0.1 0-0.1 0.1zm-0.1 2.2q0 0.1 0.1 0.1 0.1 0 0.1-0.1 0-0.1-0.1-0.1-0.1 0-0.1 0.1zm0-0.2h0.1l-0.1-0.1zm0-0.4q0 0 0.1 0 0.1 0 0.1 0 0-0.1-0.1-0.1-0.1 0-0.1 0.1zm-0.1 0.8q0-0.1 0-0.1 0 0 0 0.1zm-0.2-0.5l0.2-0.1v-0.1l-0.2 0.1zm-0.3 0.3q0 0.1 0.1 0.1 0 0 0-0.1-0.1 0-0.1 0zm-0.3 0h0.1v-0.3h-0.1q0 0 0 0.1 0 0.1 0 0.2zm-0.1-1.9q0 0.1 0 0.1 0.1 0 0.1-0.1 0 0-0.1 0zm-0.2 1q0 0 0 0.1 0.1 0 0.1 0 0-0.1-0.1-0.1zm-0.2 0.7q0 0.1 0.1 0.1 0 0 0-0.1-0.1 0-0.1 0zm0.1-1.1q-0.1 0-0.1 0.1 0 0 0.1 0 0-0.1 0-0.1zm-0.1-0.4q0 0.1 0.1 0.1 0 0 0-0.1-0.1 0-0.1 0zm0-0.3q0 0.1 0.1 0.1 0 0 0-0.1-0.1 0-0.1 0zm-0.1 0.9q0 0 0.1 0 0.1 0 0.1 0 0-0.1-0.1-0.1-0.1 0-0.1 0.1zm-0.1-0.3q0 0.1 0.1 0.1 0.1 0 0.1-0.1 0 0-0.1 0-0.1 0-0.1 0zm-0.2-0.6q0 0.1 0.1 0.1 0.1 0 0.1-0.1 0 0-0.1 0-0.1 0-0.1 0zm-0.1 1.6q0 0 0.1 0 0-0.1 0-0.1-0.1 0-0.1 0.1zm-0.3-1.3q0 0.2 0.1 0.2 0.2 0 0.2 0h0.1q-0.1-0.2-0.4-0.2zm0.2-0.2q0 0.2 0.1 0.2h0.1l-0.2-0.3zm0.1-0.1l0.1-0.1h-0.1zm-0.7-0.1h-0.1l0.1 0.1zm-0.1-0.3q0 0.1 0.1 0.1 0.1 0 0.1-0.1 0 0-0.1 0-0.1 0-0.1 0zm-0.1 1.2q0 0.1 0 0.1 0.1 0 0.1-0.1 0-0.1-0.1-0.1 0 0 0 0.1zm0-0.7q0 0.1 0.1 0.1 0 0 0-0.1-0.1 0-0.1 0z"/>
				<path id="Shape 19" fill-rule="evenodd" class="s2" d="m0-2h1v48h-1z"/>
				<path id="Shape 20" fill-rule="evenodd" class="s2" d="m199-2h1v50h-1z"/>
				<path id="Shape 6" fill-rule="evenodd" class="s4" d="m7.4 46.3c0.4 0.2 1.5-0.1 2.2 0 0.6 0 1.9-0.1 1.9-0.1 0.3 0 0.3-0.8 0.2-1.1-0.1-0.3-0.5-0.3-0.7-0.4l-0.1-1.1-0.3-1.8v-0.5-1.2c0.1 0-0.6-2.8-0.6-2.3 0 1.3-0.7 3.3-0.8 2.9-0.2-0.3-1.1-2.1-0.8-3.3 0.1-0.3-0.7 2.3-0.8 2.1-0.3-0.5-0.8-1.1-0.9-2.2-0.1-0.1-0.5 3.3-0.7 3.2-0.6-0.3-0.6-2.2-0.5-2.9 0-0.2-0.3 1-0.4 1.1-0.1 0.4 0 0.8-0.2 1.2 0 0-0.1 1.8 0 2.2-0.1 0.7-0.1 1.6 0 1.6 0 0.1-0.1 0.6-0.2 1l-0.8 0.3-0.7-0.4c-0.4 0.2-0.4 0.7-0.3 0.9 0 0.3 0.3 0.7 0.6 0.8l2 0.1z"/>
				<path id="Shape 6 copy" fill-rule="evenodd" class="s4" d="m19.3 46c-0.3 0.2-1.5 0-2.2 0.1-0.7 0-3.3 0.1-3.3 0.1-0.2 0-0.2-1-0.1-1.3 0.1-0.2 1.5-0.6 1.6-0.8 0-0.3-0.2-1.1-0.2-1.5-0.1-0.3 0.4-0.8 0.4-1.2 0 0-0.3-0.6-0.3-1.2l0.4-1c0.5-0.5 0.3-0.6 0.6-1.4 0.2-0.4 0.2 2.7 0.6 1.8 0.1-0.3 1.3-3.4 1-2.2-0.1 1 0.4 3.4 1.3 2.6 0.2-0.2 0.2-1.2 0.4-1.9 0-0.1-0.1 3.2 0.4 3.2 0.4 0 1.2-2.8 1.1-3.6 0 0 0-0.5 0.6 0.8l0.2 1.1 0.1 2.2c-0.1 0.7-0.1 1.7-0.1 1.7 0-0.1-0.1 0.8 0 1 0.2 0.2 0.4 0.1 0.9 0.3 0.3 0 0.4 0.1 0.8 0.2h0.3c0 0 0.8 0.8-0.6 1l-1.9 0.1z"/>
				<path id="Shape 7" fill-rule="evenodd" class="s4" d="m30.5 46.2c-0.9-0.2-1.6-0.4-1.9-0.5-1.1-1-1.1-1-1.6-1.6-0.7-0.8-1.6-1.5-1.6-1.9-0.1-1.3 0.2-2.1 0.5-2.5 0.2-0.3 0.9-1 0.7-0.2-0.2 0.5 0.5 1.4 0.9 1.6 0.1 0 2.1-0.9 1-3.2-0.2-0.4 1.4 1.6 1.7 2 0.3 0.4 0.4 1.6 0.5 2.2 0.1 0.8 0.5 1.2 0.7 1.5 0.2 0.3 0.7 0.7 1 0.7 0.3 0 0.8-0.7 1.1-1.1 0.4-0.7 0.3-1.1 0.8-2 0.3-0.7 0.4-1.2 0.4-2.5 0-0.5 1.1 1.5 1.2 2.6 0.1 1.1 0.5 0.5 1-0.2 0.3-0.5 0.5-1 0.4-2.3 0-0.4 1.5 1.9 1.4 2.7-0.1 0.6-0.6 1.8-1.1 2.2-0.6 0.5-1.7 1.7-2.4 1.9-0.6 0.2-1.8 0.4-2.1 0.5-0.6 0.2-2 0.2-2.6 0.1z"/>
				<path id="Shape 8" fill-rule="evenodd" class="s4" d="m50.8 42.3c0.2-0.6 0.5-1.6 0.3-2.2-0.1-0.4 1 0.9 1.1 1.6 0.2 0.8-0.2 1.5-0.5 2.1-0.1 0.1-0.3 0.6-0.8 1.2 0 0.1-0.4 0.5-1.1 0.9-0.3 0.2-0.7 0.2-1.2 0.4-0.3 0.1-0.9 0-1.4 0.1-0.3 0-0.8 0-1.1 0 0 0-1.1-0.3-1.3-0.5 0 0-0.6-0.2-0.8-0.3-0.3-0.3-0.6-0.4-0.6-0.5-0.2-0.3-0.4-0.6-0.4-1.1 0-0.3 0.1-1.5 0.2-1.7 0.1-0.4 0.6-1.5 0.3-2.4-0.1-0.3 1 1.8 1.1 1.4 0.1-0.7 0.8-2.1 0.7-1.6-0.3 1 0.9 2.4 1.4 2.6 0.7 0.1 1.2-2.2 1.1-1.8-0.1 1 0.3 1.4 0.3 1.9 0.1 0.8-0.1 0.8 0.1 0.9 0.4 0.2 0.5 0.5 0.8 0.6 0.3 0 1-0.4 1-0.4 0.5-0.3 0.7-0.7 0.8-1.2z"/>
			</g>
			<path id="Shape 9" fill-rule="evenodd" class="s2" d="m193.1 46.6l7.7-0.9 0.4 3.4-7.7 0.9z"/>
			<path id="Shape 10" fill-rule="evenodd" class="s2" d="m195.6 46.1l2.4-0.6 0.2 0.6-2.5 0.7z"/>
		</g>
		<path id="Where food is hot and plates are" class="s4" aria-label="Where food is hot and plates are heavy"  d="m22.2 71h-1.4l-1.6-11.8h1.6l0.7 6.2 0.1 0.3h0.1v-0.3l0.8-6.2h1.2l0.8 6.2v0.3h0.1l0.1-0.3 0.7-6.2h1.6l-1.6 11.8h-1.4l-0.8-5.6-0.1-0.7-0.1 0.7zm7 0h-1.6v-11.7h1.6v3.6q0.2-0.2 0.6-0.5 0.4-0.2 0.8-0.2 0.4 0 0.7 0.2 0.2 0.2 0.4 0.6 0.1 0.4 0.1 0.9v7.1h-1.6v-6.8q0-0.2-0.1-0.4-0.1-0.1-0.3-0.1-0.1 0-0.4 0.2-0.2 0.1-0.2 0.4zm5.4 0.1q-1 0-1.5-0.7-0.6-0.6-0.6-1.6v-4.4q0-1 0.6-1.7 0.5-0.6 1.5-0.6 0.7 0 1.1 0.3 0.5 0.3 0.8 0.8 0.2 0.5 0.2 1.1v2.6h-2.7v1.9q0 0.3 0.2 0.6 0.1 0.3 0.4 0.3 0.3 0 0.5-0.3 0.1-0.2 0.1-0.6v-1h1.5v1q0 1.1-0.5 1.7-0.6 0.6-1.6 0.6zm-0.6-6.7v1.2h1.2v-1.2q0-0.4-0.1-0.6-0.1-0.3-0.5-0.3-0.3 0-0.4 0.3-0.2 0.3-0.2 0.6zm5 6.6h-1.6v-8.8h1.6v1q0.1-0.3 0.3-0.6 0.3-0.2 0.6-0.4 0.4-0.1 0.7-0.1v1.8q-0.1-0.1-0.2-0.1-0.1 0-0.2 0-0.5 0-0.9 0.3-0.3 0.3-0.3 0.8zm4.1 0.1q-0.9 0-1.5-0.6-0.6-0.7-0.6-1.7v-4.4q0-1 0.6-1.6 0.6-0.7 1.5-0.7 0.7 0 1.2 0.3 0.4 0.3 0.7 0.8 0.2 0.5 0.2 1.2v2.5h-2.6v1.9q0 0.3 0.1 0.6 0.1 0.3 0.4 0.3 0.4 0 0.5-0.3 0.1-0.2 0.1-0.6v-0.9h1.5v1q0 1-0.5 1.6-0.6 0.6-1.6 0.6zm-0.5-6.7v1.2h1.1v-1.2q0-0.3-0.1-0.6-0.1-0.3-0.5-0.3-0.3 0-0.4 0.3-0.1 0.3-0.1 0.6zm7.9 6.6h-1.6v-7.3h-0.8v-1.5h0.8v-0.4q0-1.3 0.6-2 0.6-0.6 1.5-0.6 0.2 0 0.4 0 0.2 0 0.3 0.1v1.4q-0.2-0.1-0.5-0.1-0.2 0-0.5 0.2-0.2 0.3-0.2 0.8v0.6h1v1.5h-1zm3.6 0.1q-0.9 0-1.5-0.6-0.5-0.7-0.5-1.7v-4.4q0-1 0.5-1.6 0.6-0.7 1.5-0.7 1 0 1.6 0.7 0.5 0.6 0.5 1.6v4.4q0 1-0.5 1.7-0.6 0.6-1.6 0.6zm0-1.4q0.4 0 0.5-0.2 0.1-0.3 0.1-0.7v-4.4q0-0.4-0.1-0.6-0.1-0.3-0.5-0.3-0.3 0-0.4 0.3-0.1 0.2-0.1 0.6v4.4q0 0.4 0.1 0.7 0.1 0.2 0.4 0.2zm4.8 1.4q-0.9 0-1.5-0.6-0.5-0.7-0.5-1.7v-4.4q0-1 0.5-1.6 0.6-0.7 1.5-0.7 1 0 1.5 0.7 0.6 0.6 0.6 1.6v4.4q0 1-0.6 1.7-0.5 0.6-1.5 0.6zm0-1.4q0.3 0 0.5-0.2 0.1-0.3 0.1-0.7v-4.4q0-0.4-0.1-0.6-0.2-0.3-0.5-0.3-0.3 0-0.4 0.3-0.1 0.2-0.1 0.6v4.4q0 0.4 0.1 0.7 0.1 0.2 0.4 0.2zm4 1.4q-0.4 0-0.7-0.2-0.3-0.3-0.4-0.7-0.2-0.4-0.2-0.8v-5.6q0-0.4 0.2-0.8 0.1-0.4 0.4-0.6 0.3-0.3 0.7-0.3 0.3 0 0.6 0.2 0.4 0.2 0.7 0.5v-3.6h1.6v11.8h-1.6v-0.6q-0.4 0.3-0.7 0.5-0.3 0.2-0.6 0.2zm0.8-1.5q0.1 0 0.3-0.1 0.2-0.2 0.2-0.4v-4.9q0-0.2-0.2-0.4-0.2-0.2-0.3-0.2-0.2 0-0.3 0.2-0.1 0.1-0.1 0.4v4.9q0 0.2 0.1 0.4 0.1 0.1 0.3 0.1zm7.3 1.4h-1.6v-8.8h1.6zm0-10.1h-1.6v-1.6h1.6zm2.9 10.3q-0.6 0-1-0.2-0.4-0.2-0.7-0.6-0.3-0.3-0.4-0.8-0.2-0.5-0.2-1.1h1.5q0 0.5 0.2 0.9 0.2 0.4 0.6 0.4 0.3 0 0.5-0.3 0.1-0.3 0.1-0.7 0-0.4-0.4-0.9-0.3-0.4-0.7-0.8-0.7-0.7-1.1-1.3-0.4-0.6-0.4-1.4 0-1 0.5-1.6 0.5-0.7 1.5-0.7 0.6 0 0.9 0.2 0.4 0.2 0.7 0.5 0.2 0.3 0.3 0.7 0.1 0.4 0.1 1h-1.5q0-0.4 0-0.7-0.1-0.3-0.5-0.3-0.3 0-0.4 0.2-0.1 0.3-0.1 0.7 0 0.4 0.2 0.7 0.2 0.4 0.7 0.9 0.6 0.6 1.1 1.3 0.6 0.6 0.6 1.5 0 0.5-0.2 0.9-0.1 0.5-0.4 0.8-0.3 0.3-0.6 0.5-0.4 0.2-0.9 0.2zm6.8-0.2h-1.6v-11.7h1.6v3.6q0.2-0.2 0.6-0.5 0.4-0.3 0.8-0.3 0.4 0 0.6 0.3 0.3 0.2 0.5 0.6 0.1 0.4 0.1 0.9v7.1h-1.6v-6.8q0-0.2-0.1-0.4-0.1-0.1-0.3-0.1-0.2 0-0.4 0.2-0.2 0.1-0.2 0.4zm5.4 0.1q-1 0-1.5-0.7-0.6-0.6-0.6-1.6v-4.4q0-1 0.6-1.7 0.5-0.6 1.5-0.6 0.9 0 1.5 0.6 0.6 0.7 0.6 1.7v4.4q0 1-0.6 1.6-0.6 0.7-1.5 0.7zm0-1.4q0.3 0 0.4-0.3 0.1-0.2 0.1-0.6v-4.4q0-0.4-0.1-0.7-0.1-0.2-0.4-0.2-0.3 0-0.5 0.2-0.1 0.3-0.1 0.7v4.4q0 0.4 0.1 0.6 0.2 0.3 0.5 0.3zm5 1.4q-0.7 0-1.1-0.3-0.4-0.4-0.6-1-0.1-0.6-0.1-1.5v-4.6h-0.8v-1.5h0.8v-2.1h1.6v2.1h1.1v1.5h-1.1v4.8q0 0.6 0.2 0.8 0.1 0.2 0.5 0.2 0.1 0 0.2 0 0.1 0 0.2 0v1.4q-0.2 0.1-0.3 0.2-0.2 0-0.6 0zm5.1 0q-0.5 0-1-0.6-0.4-0.5-0.4-1.7 0-1.1 0.5-1.8 0.5-0.7 1.5-1.2 0.3-0.2 0.5-0.3 0.2-0.1 0.2-0.2v-1q0-0.3 0-0.6-0.1-0.2-0.4-0.2-0.3 0-0.4 0.3-0.1 0.2-0.1 0.6v0.4h-1.6v-0.4q0-0.7 0.3-1.2 0.3-0.5 0.8-0.8 0.5-0.3 1.1-0.3 0.6 0 1 0.3 0.5 0.2 0.7 0.7 0.3 0.5 0.3 1.1v5.2q0 0.6 0 1 0 0.3 0.1 0.6h-1.6q-0.1-0.2-0.1-0.4-0.1-0.3-0.1-0.3h-0.1q-0.2 0.3-0.5 0.6-0.3 0.2-0.7 0.2zm0.7-1.6q0.3 0 0.4-0.2 0.2-0.2 0.2-0.4v-2.1q-0.5 0.3-0.8 0.8-0.3 0.5-0.3 1.1 0 0.3 0.1 0.5 0.1 0.3 0.4 0.3zm4.8 1.5h-1.6v-8.8h1.6v0.8q0.3-0.3 0.6-0.6 0.4-0.3 0.7-0.3 0.4 0 0.7 0.2 0.2 0.3 0.4 0.7 0.1 0.4 0.1 0.8v7.2h-1.6v-6.9q0-0.2-0.1-0.3-0.1-0.1-0.3-0.1-0.2 0-0.3 0.1-0.1 0.1-0.2 0.3zm4.5 0.1q-0.4 0-0.7-0.2-0.3-0.3-0.4-0.7-0.2-0.4-0.2-0.8v-5.6q0-0.4 0.2-0.8 0.1-0.4 0.4-0.7 0.3-0.2 0.7-0.2 0.3 0 0.6 0.2 0.4 0.2 0.7 0.5v-3.6h1.6v11.8h-1.6v-0.6q-0.4 0.3-0.7 0.5-0.3 0.2-0.6 0.2zm0.8-1.5q0.1 0 0.3-0.2 0.2-0.1 0.2-0.3v-5q0-0.2-0.2-0.3-0.2-0.2-0.3-0.2-0.2 0-0.3 0.2-0.1 0.1-0.1 0.3v5q0 0.2 0.1 0.3 0.1 0.2 0.3 0.2zm7.2 4.4h-1.6v-11.8h1.6v0.6q0.3-0.3 0.7-0.5 0.3-0.2 0.6-0.2 0.4 0 0.7 0.2 0.3 0.3 0.4 0.7 0.1 0.4 0.1 0.8v5.6q0 0.4-0.1 0.8-0.1 0.4-0.4 0.7-0.3 0.2-0.7 0.2-0.3 0-0.7-0.2-0.3-0.2-0.6-0.5zm0.6-4.4q0.2 0 0.2-0.1 0.1-0.1 0.1-0.4v-4.9q0-0.3-0.1-0.4 0-0.2-0.2-0.2-0.2 0-0.4 0.2-0.2 0.1-0.2 0.4v4.9q0 0.2 0.2 0.3 0.2 0.2 0.4 0.2zm4.4 1.4h-1.7v-11.8h1.7zm2.1 0.2q-0.6 0-1-0.6-0.4-0.6-0.4-1.7 0-1.2 0.5-1.9 0.5-0.7 1.5-1.2 0.3-0.1 0.5-0.2 0.2-0.2 0.2-0.3v-0.9q0-0.4-0.1-0.6 0-0.2-0.3-0.2-0.3 0-0.4 0.2-0.1 0.3-0.1 0.6v0.5h-1.6v-0.4q0-0.7 0.3-1.3 0.3-0.5 0.8-0.8 0.4-0.3 1.1-0.3 0.6 0 1 0.3 0.5 0.3 0.7 0.8 0.2 0.5 0.2 1.1v5.2q0 0.6 0.1 0.9 0 0.3 0.1 0.6h-1.6q-0.1-0.1-0.2-0.3 0-0.3 0-0.4h-0.1q-0.2 0.4-0.5 0.6-0.3 0.3-0.7 0.3zm0.7-1.6q0.2 0 0.4-0.2 0.2-0.2 0.2-0.4v-2.1q-0.6 0.2-0.8 0.7-0.3 0.5-0.3 1.2 0 0.2 0.1 0.5 0.1 0.3 0.4 0.3zm5.5 1.6q-0.8 0-1.2-0.4-0.4-0.3-0.5-0.9-0.2-0.7-0.2-1.5v-4.7h-0.8v-1.4h0.8v-2.2h1.7v2.2h1.1v1.4h-1.1v4.9q0 0.5 0.1 0.8 0.2 0.2 0.5 0.2 0.2 0 0.3 0 0.1 0 0.2-0.1v1.5q-0.2 0.1-0.4 0.1-0.2 0.1-0.5 0.1zm3.4 0q-1 0-1.6-0.7-0.5-0.7-0.5-1.6v-4.4q0-1.1 0.5-1.7 0.6-0.7 1.6-0.7 0.6 0 1.1 0.3 0.5 0.3 0.7 0.9 0.3 0.5 0.3 1.1v2.5h-2.7v2q0 0.3 0.1 0.6 0.2 0.2 0.5 0.2 0.3 0 0.4-0.2 0.1-0.3 0.1-0.6v-1h1.6v1q0 1-0.6 1.6-0.5 0.7-1.5 0.7zm-0.6-6.7v1.2h1.1v-1.2q0-0.4-0.1-0.7-0.1-0.2-0.4-0.2-0.3 0-0.5 0.2-0.1 0.3-0.1 0.7zm5.4 6.7q-0.6 0-1-0.2-0.4-0.2-0.7-0.6-0.3-0.3-0.4-0.8-0.2-0.5-0.2-1.1h1.6q0 0.5 0.1 0.9 0.2 0.4 0.6 0.4 0.4 0 0.5-0.3 0.1-0.3 0.1-0.7 0-0.4-0.4-0.9-0.3-0.4-0.7-0.8-0.7-0.7-1.1-1.3-0.4-0.6-0.4-1.4 0-1 0.5-1.6 0.5-0.7 1.5-0.7 0.6 0 1 0.2 0.4 0.2 0.6 0.5 0.2 0.3 0.3 0.7 0.2 0.4 0.2 1h-1.6q0-0.4 0-0.7-0.1-0.3-0.5-0.3-0.3 0-0.4 0.2-0.1 0.3-0.1 0.7 0 0.4 0.2 0.7 0.2 0.4 0.7 0.9 0.6 0.6 1.1 1.3 0.6 0.6 0.6 1.5 0 0.5-0.2 0.9-0.1 0.5-0.4 0.8-0.2 0.3-0.6 0.5-0.4 0.2-0.9 0.2zm6.4 0q-0.5 0-0.9-0.6-0.4-0.6-0.4-1.7 0-1.2 0.4-1.9 0.5-0.7 1.5-1.2 0.3-0.1 0.5-0.2 0.2-0.2 0.3-0.3v-0.9q0-0.4-0.1-0.6-0.1-0.2-0.4-0.2-0.3 0-0.4 0.2-0.1 0.3-0.1 0.6v0.5h-1.6v-0.4q0-0.7 0.3-1.3 0.3-0.5 0.8-0.8 0.5-0.3 1.1-0.3 0.6 0 1 0.3 0.5 0.3 0.7 0.8 0.3 0.5 0.3 1.1v5.2q0 0.6 0 0.9 0 0.3 0.1 0.6h-1.6q-0.1-0.1-0.1-0.3 0-0.3 0-0.4h-0.2q-0.2 0.4-0.5 0.6-0.3 0.3-0.7 0.3zm0.7-1.6q0.3 0 0.5-0.2 0.2-0.2 0.2-0.4v-2.1q-0.6 0.2-0.9 0.7-0.3 0.5-0.3 1.2 0 0.2 0.1 0.5 0.1 0.3 0.4 0.3zm4.8 1.4h-1.6v-8.7h1.6v1q0-0.4 0.3-0.6 0.2-0.3 0.6-0.4 0.4-0.2 0.7-0.2v1.8q-0.1 0-0.2 0-0.1 0-0.2 0-0.6 0-0.9 0.3-0.3 0.3-0.3 0.7zm4.1 0.2q-1 0-1.5-0.7-0.6-0.7-0.6-1.6v-4.4q0-1.1 0.6-1.7 0.5-0.6 1.5-0.6 0.7 0 1.1 0.3 0.5 0.3 0.8 0.8 0.2 0.5 0.2 1.1v2.6h-2.7v1.9q0 0.3 0.2 0.6 0.1 0.3 0.4 0.3 0.3 0 0.5-0.3 0.1-0.3 0.1-0.6v-1h1.5v1q0 1-0.5 1.7-0.6 0.6-1.6 0.6zm-0.6-6.7v1.2h1.2v-1.2q0-0.4-0.1-0.7-0.1-0.2-0.5-0.2-0.3 0-0.4 0.3-0.2 0.2-0.2 0.6zm7.5 6.5h-1.6v-11.7h1.6v3.6q0.2-0.2 0.6-0.5 0.4-0.2 0.8-0.2 0.4 0 0.7 0.2 0.2 0.2 0.4 0.6 0.1 0.4 0.1 0.9v7.1h-1.6v-6.8q0-0.2-0.1-0.4-0.1-0.1-0.3-0.1-0.1 0-0.4 0.2-0.2 0.2-0.2 0.4zm5.4 0.1q-1 0-1.5-0.6-0.6-0.7-0.6-1.7v-4.4q0-1 0.6-1.7 0.5-0.6 1.5-0.6 0.7 0 1.1 0.3 0.5 0.3 0.8 0.8 0.2 0.5 0.2 1.2v2.5h-2.7v1.9q0 0.3 0.2 0.6 0.1 0.3 0.4 0.3 0.3 0 0.5-0.3 0.1-0.2 0.1-0.6v-0.9h1.5v1q0 1-0.5 1.6-0.6 0.6-1.6 0.6zm-0.6-6.7v1.2h1.2v-1.2q0-0.3-0.1-0.6-0.1-0.3-0.5-0.3-0.3 0-0.4 0.3-0.2 0.3-0.2 0.6zm4.6 6.7q-0.6 0-1-0.6-0.4-0.5-0.4-1.7 0-1.1 0.5-1.8 0.5-0.7 1.5-1.2 0.3-0.2 0.5-0.3 0.2-0.1 0.2-0.2v-1q0-0.3 0-0.5-0.1-0.3-0.4-0.3-0.3 0-0.4 0.3-0.1 0.2-0.1 0.6v0.4h-1.6v-0.4q0-0.7 0.3-1.2 0.3-0.5 0.8-0.8 0.5-0.3 1.1-0.3 0.6 0 1 0.3 0.5 0.3 0.7 0.7 0.3 0.5 0.3 1.2v5.2q0 0.6 0 0.9 0 0.3 0.1 0.6h-1.6q-0.1-0.1-0.1-0.4-0.1-0.2-0.1-0.3h-0.1q-0.2 0.4-0.5 0.6-0.3 0.2-0.7 0.2zm0.7-1.6q0.2 0 0.4-0.2 0.2-0.2 0.2-0.4v-2.1q-0.5 0.3-0.8 0.8-0.3 0.5-0.3 1.1 0 0.3 0.1 0.6 0.1 0.2 0.4 0.2zm5.9 1.5h-1.6l-1.4-8.8h1.6l0.5 5.1v0.9h0.2v-0.9l0.6-5.1h1.5zm2.3 3.2q-0.1 0-0.3 0-0.1 0-0.2-0.1v-1.4q0 0 0.1 0 0.1 0 0.1 0 0.5 0 0.7-0.2 0.3-0.2 0.4-0.6 0.1-0.2 0.1-0.3 0-0.2 0-0.3l-1.5-9h1.6l0.6 5.4 0.1 0.6v-0.6l0.7-5.4h1.6l-1.6 9.4q-0.1 0.7-0.4 1.3-0.3 0.5-0.8 0.9-0.5 0.3-1.2 0.3z"/>
	</g>
</svg>